solid OpenSCAD_Model
  facet normal -0.999507 0.0314118 0
    outer loop
      vertex -3 0 0
      vertex -2.99408 0.188371 3
      vertex -2.99408 0.188371 0
    endloop
  endfacet
  facet normal -0.999507 0.0314118 0
    outer loop
      vertex -2.99408 0.188371 3
      vertex -3 0 0
      vertex -3 0 3
    endloop
  endfacet
  facet normal 0.279156 -0.960246 0
    outer loop
      vertex 70.4974 -1.93717 0
      vertex 70.618 -1.90211 3
      vertex 70.4974 -1.93717 3
    endloop
  endfacet
  facet normal 0.279156 -0.960246 0
    outer loop
      vertex 70.618 -1.90211 3
      vertex 70.4974 -1.93717 0
      vertex 70.618 -1.90211 0
    endloop
  endfacet
  facet normal 0.316228 -0.948683 0
    outer loop
      vertex 70.618 -1.90211 0
      vertex 100.618 8.09789 3
      vertex 70.618 -1.90211 3
    endloop
  endfacet
  facet normal 0.316228 -0.948683 0
    outer loop
      vertex 100.618 8.09789 3
      vertex 70.618 -1.90211 0
      vertex 100.618 8.09789 0
    endloop
  endfacet
  facet normal 0.0142843 -0.999898 0
    outer loop
      vertex 0 -3 0
      vertex 54.2164 -2.22548 3
      vertex 0 -3 3
    endloop
  endfacet
  facet normal 0.0142843 -0.999898 0
    outer loop
      vertex 54.2164 -2.22548 3
      vertex 0 -3 0
      vertex 54.2164 -2.22548 0
    endloop
  endfacet
  facet normal 0.0142846 -0.999898 0
    outer loop
      vertex 58.1801 -2.16886 0
      vertex 70 -2 3
      vertex 58.1801 -2.16886 3
    endloop
  endfacet
  facet normal 0.0142846 -0.999898 0
    outer loop
      vertex 70 -2 3
      vertex 58.1801 -2.16886 0
      vertex 70 -2 0
    endloop
  endfacet
  facet normal 0.0314335 -0.999506 0
    outer loop
      vertex 70 -2 0
      vertex 70.1256 -1.99605 3
      vertex 70 -2 3
    endloop
  endfacet
  facet normal 0.0314335 -0.999506 0
    outer loop
      vertex 70.1256 -1.99605 3
      vertex 70 -2 0
      vertex 70.1256 -1.99605 0
    endloop
  endfacet
  facet normal -0.0314118 -0.999507 0
    outer loop
      vertex -0.188371 -2.99408 0
      vertex 0 -3 3
      vertex -0.188371 -2.99408 3
    endloop
  endfacet
  facet normal -0.0314118 -0.999507 -0
    outer loop
      vertex 0 -3 3
      vertex -0.188371 -2.99408 0
      vertex 0 -3 0
    endloop
  endfacet
  facet normal -0.99556 0.094129 0
    outer loop
      vertex -2.99408 0.188371 0
      vertex -2.97634 0.375999 3
      vertex -2.97634 0.375999 0
    endloop
  endfacet
  facet normal -0.99556 0.094129 0
    outer loop
      vertex -2.97634 0.375999 3
      vertex -2.99408 0.188371 0
      vertex -2.99408 0.188371 3
    endloop
  endfacet
  facet normal 0.706311 0.707902 -0
    outer loop
      vertex 101.458 11.3691 0
      vertex 101.369 11.4579 3
      vertex 101.458 11.3691 3
    endloop
  endfacet
  facet normal 0.706311 0.707902 0
    outer loop
      vertex 101.369 11.4579 3
      vertex 101.458 11.3691 0
      vertex 101.369 11.4579 0
    endloop
  endfacet
  facet normal 0.860581 -0.509314 0
    outer loop
      vertex 101.689 8.92835 3
      vertex 101.753 9.03649 0
      vertex 101.753 9.03649 3
    endloop
  endfacet
  facet normal 0.860581 -0.509314 0
    outer loop
      vertex 101.753 9.03649 0
      vertex 101.689 8.92835 3
      vertex 101.689 8.92835 0
    endloop
  endfacet
  facet normal 0.0940655 -0.995566 0
    outer loop
      vertex 70.1256 -1.99605 0
      vertex 70.2507 -1.98423 3
      vertex 70.1256 -1.99605 3
    endloop
  endfacet
  facet normal 0.0940655 -0.995566 0
    outer loop
      vertex 70.2507 -1.98423 3
      vertex 70.1256 -1.99605 0
      vertex 70.2507 -1.98423 0
    endloop
  endfacet
  facet normal -0.661299 -0.750123 0
    outer loop
      vertex -2.05364 -2.18691 0
      vertex -1.91227 -2.31154 3
      vertex -2.05364 -2.18691 3
    endloop
  endfacet
  facet normal -0.661299 -0.750123 -0
    outer loop
      vertex -1.91227 -2.31154 3
      vertex -2.05364 -2.18691 0
      vertex -1.91227 -2.31154 0
    endloop
  endfacet
  facet normal 0 0 1
    outer loop
      vertex 4.99605 10.1256 3
      vertex 4.99605 9.87442 3
      vertex 5 10 3
    endloop
  endfacet
  facet normal 0 0 1
    outer loop
      vertex 4.98423 10.2507 3
      vertex 4.99605 9.87442 3
      vertex 4.99605 10.1256 3
    endloop
  endfacet
  facet normal 0 0 1
    outer loop
      vertex 4.98423 10.2507 3
      vertex 4.98423 9.74933 3
      vertex 4.99605 9.87442 3
    endloop
  endfacet
  facet normal 0 0 1
    outer loop
      vertex 4.96457 10.3748 3
      vertex 4.98423 9.74933 3
      vertex 4.98423 10.2507 3
    endloop
  endfacet
  facet normal 0 0 1
    outer loop
      vertex 4.96457 10.3748 3
      vertex 4.96457 9.62524 3
      vertex 4.98423 9.74933 3
    endloop
  endfacet
  facet normal 0 0 1
    outer loop
      vertex 4.93717 10.4974 3
      vertex 4.96457 9.62524 3
      vertex 4.96457 10.3748 3
    endloop
  endfacet
  facet normal 0 0 1
    outer loop
      vertex 4.90211 10.618 3
      vertex 4.96457 9.62524 3
      vertex 4.93717 10.4974 3
    endloop
  endfacet
  facet normal 0 0 1
    outer loop
      vertex 4.85955 10.7362 3
      vertex 4.96457 9.62524 3
      vertex 4.90211 10.618 3
    endloop
  endfacet
  facet normal 0 0 1
    outer loop
      vertex 4.80965 10.8516 3
      vertex 4.96457 9.62524 3
      vertex 4.85955 10.7362 3
    endloop
  endfacet
  facet normal 0 0 1
    outer loop
      vertex 4.75261 10.9635 3
      vertex 4.96457 9.62524 3
      vertex 4.80965 10.8516 3
    endloop
  endfacet
  facet normal 0 0 1
    outer loop
      vertex 4.68865 11.0717 3
      vertex 4.96457 9.62524 3
      vertex 4.75261 10.9635 3
    endloop
  endfacet
  facet normal 0 0 1
    outer loop
      vertex 4.61803 11.1756 3
      vertex 4.96457 9.62524 3
      vertex 4.68865 11.0717 3
    endloop
  endfacet
  facet normal 0 0 1
    outer loop
      vertex 4.54103 11.2748 3
      vertex 4.96457 9.62524 3
      vertex 4.61803 11.1756 3
    endloop
  endfacet
  facet normal 0 0 1
    outer loop
      vertex 4.45794 11.3691 3
      vertex 4.96457 9.62524 3
      vertex 4.54103 11.2748 3
    endloop
  endfacet
  facet normal 0 0 1
    outer loop
      vertex 4.36909 11.4579 3
      vertex 4.96457 9.62524 3
      vertex 4.45794 11.3691 3
    endloop
  endfacet
  facet normal 0 0 1
    outer loop
      vertex 4.27485 11.541 3
      vertex 4.96457 9.62524 3
      vertex 4.36909 11.4579 3
    endloop
  endfacet
  facet normal 0 0 1
    outer loop
      vertex 4.17557 11.618 3
      vertex 4.96457 9.62524 3
      vertex 4.27485 11.541 3
    endloop
  endfacet
  facet normal 0 0 1
    outer loop
      vertex 4.07165 11.6887 3
      vertex 4.96457 9.62524 3
      vertex 4.17557 11.618 3
    endloop
  endfacet
  facet normal 0 0 1
    outer loop
      vertex 3.96351 11.7526 3
      vertex 4.96457 9.62524 3
      vertex 4.07165 11.6887 3
    endloop
  endfacet
  facet normal 0 0 1
    outer loop
      vertex 3.85156 11.8097 3
      vertex 4.96457 9.62524 3
      vertex 3.96351 11.7526 3
    endloop
  endfacet
  facet normal 0 0 1
    outer loop
      vertex 3.73625 11.8596 3
      vertex 4.96457 9.62524 3
      vertex 3.85156 11.8097 3
    endloop
  endfacet
  facet normal -0 0 1
    outer loop
      vertex 1.14045 10.7362 3
      vertex 4.96457 9.62524 3
      vertex 3.73625 11.8596 3
    endloop
  endfacet
  facet normal 0 0 1
    outer loop
      vertex 1.14045 10.7362 3
      vertex 3.73625 11.8596 3
      vertex 3.61803 11.9021 3
    endloop
  endfacet
  facet normal 0 0 1
    outer loop
      vertex 101.996 10.1256 3
      vertex 101.996 9.87442 3
      vertex 102 10 3
    endloop
  endfacet
  facet normal 0 0 1
    outer loop
      vertex 101.984 10.2507 3
      vertex 101.996 9.87442 3
      vertex 101.996 10.1256 3
    endloop
  endfacet
  facet normal 0 0 1
    outer loop
      vertex 101.984 10.2507 3
      vertex 101.984 9.74933 3
      vertex 101.996 9.87442 3
    endloop
  endfacet
  facet normal 0 0 1
    outer loop
      vertex 101.965 10.3748 3
      vertex 101.984 9.74933 3
      vertex 101.984 10.2507 3
    endloop
  endfacet
  facet normal 0 0 1
    outer loop
      vertex 101.965 10.3748 3
      vertex 101.965 9.62524 3
      vertex 101.984 9.74933 3
    endloop
  endfacet
  facet normal 0 0 1
    outer loop
      vertex 101.937 10.4974 3
      vertex 101.965 9.62524 3
      vertex 101.965 10.3748 3
    endloop
  endfacet
  facet normal 0 0 1
    outer loop
      vertex 101.937 10.4974 3
      vertex 101.937 9.50262 3
      vertex 101.965 9.62524 3
    endloop
  endfacet
  facet normal 0 0 1
    outer loop
      vertex 101.902 10.618 3
      vertex 101.937 9.50262 3
      vertex 101.937 10.4974 3
    endloop
  endfacet
  facet normal 0 0 1
    outer loop
      vertex 101.902 10.618 3
      vertex 101.902 9.38197 3
      vertex 101.937 9.50262 3
    endloop
  endfacet
  facet normal 0 0 1
    outer loop
      vertex 101.86 10.7362 3
      vertex 101.902 9.38197 3
      vertex 101.902 10.618 3
    endloop
  endfacet
  facet normal 0 0 1
    outer loop
      vertex 101.86 10.7362 3
      vertex 101.86 9.26375 3
      vertex 101.902 9.38197 3
    endloop
  endfacet
  facet normal 0 0 1
    outer loop
      vertex 101.81 10.8516 3
      vertex 101.86 9.26375 3
      vertex 101.86 10.7362 3
    endloop
  endfacet
  facet normal 0 0 1
    outer loop
      vertex 101.81 10.8516 3
      vertex 101.81 9.14844 3
      vertex 101.86 9.26375 3
    endloop
  endfacet
  facet normal 0 0 1
    outer loop
      vertex 101.753 10.9635 3
      vertex 101.81 9.14844 3
      vertex 101.81 10.8516 3
    endloop
  endfacet
  facet normal 0 0 1
    outer loop
      vertex 101.753 10.9635 3
      vertex 101.753 9.03649 3
      vertex 101.81 9.14844 3
    endloop
  endfacet
  facet normal 0 0 1
    outer loop
      vertex 101.689 11.0717 3
      vertex 101.753 9.03649 3
      vertex 101.753 10.9635 3
    endloop
  endfacet
  facet normal 0 0 1
    outer loop
      vertex 101.689 11.0717 3
      vertex 101.689 8.92835 3
      vertex 101.753 9.03649 3
    endloop
  endfacet
  facet normal 0 0 1
    outer loop
      vertex 101.618 11.1756 3
      vertex 101.689 8.92835 3
      vertex 101.689 11.0717 3
    endloop
  endfacet
  facet normal 0 0 1
    outer loop
      vertex 101.618 11.1756 3
      vertex 101.618 8.82443 3
      vertex 101.689 8.92835 3
    endloop
  endfacet
  facet normal 0 0 1
    outer loop
      vertex 101.541 11.2748 3
      vertex 101.618 8.82443 3
      vertex 101.618 11.1756 3
    endloop
  endfacet
  facet normal 0 0 1
    outer loop
      vertex 101.541 11.2748 3
      vertex 101.541 8.72515 3
      vertex 101.618 8.82443 3
    endloop
  endfacet
  facet normal 0 0 1
    outer loop
      vertex 101.458 11.3691 3
      vertex 101.541 8.72515 3
      vertex 101.541 11.2748 3
    endloop
  endfacet
  facet normal 0 0 1
    outer loop
      vertex 101.458 11.3691 3
      vertex 101.458 8.63091 3
      vertex 101.541 8.72515 3
    endloop
  endfacet
  facet normal 0 0 1
    outer loop
      vertex 101.369 11.4579 3
      vertex 101.458 8.63091 3
      vertex 101.458 11.3691 3
    endloop
  endfacet
  facet normal 0 0 1
    outer loop
      vertex 101.369 11.4579 3
      vertex 101.369 8.54206 3
      vertex 101.458 8.63091 3
    endloop
  endfacet
  facet normal 0 0 1
    outer loop
      vertex 101.275 11.541 3
      vertex 101.369 8.54206 3
      vertex 101.369 11.4579 3
    endloop
  endfacet
  facet normal 0 0 1
    outer loop
      vertex 101.275 11.541 3
      vertex 101.275 8.45897 3
      vertex 101.369 8.54206 3
    endloop
  endfacet
  facet normal 0 0 1
    outer loop
      vertex 101.176 11.618 3
      vertex 101.275 8.45897 3
      vertex 101.275 11.541 3
    endloop
  endfacet
  facet normal 0 0 1
    outer loop
      vertex 101.176 11.618 3
      vertex 101.176 8.38197 3
      vertex 101.275 8.45897 3
    endloop
  endfacet
  facet normal 0 0 1
    outer loop
      vertex 101.072 11.6887 3
      vertex 101.176 8.38197 3
      vertex 101.176 11.618 3
    endloop
  endfacet
  facet normal 0 0 1
    outer loop
      vertex 101.072 11.6887 3
      vertex 101.072 8.31134 3
      vertex 101.176 8.38197 3
    endloop
  endfacet
  facet normal 0 0 1
    outer loop
      vertex 100.964 11.7526 3
      vertex 101.072 8.31134 3
      vertex 101.072 11.6887 3
    endloop
  endfacet
  facet normal 0 0 1
    outer loop
      vertex 100.964 11.7526 3
      vertex 100.964 8.24739 3
      vertex 101.072 8.31134 3
    endloop
  endfacet
  facet normal 0 0 1
    outer loop
      vertex 100.852 11.8097 3
      vertex 100.964 8.24739 3
      vertex 100.964 11.7526 3
    endloop
  endfacet
  facet normal 0 0 1
    outer loop
      vertex 100.852 11.8097 3
      vertex 100.852 8.19035 3
      vertex 100.964 8.24739 3
    endloop
  endfacet
  facet normal 0 0 1
    outer loop
      vertex 100.736 11.8596 3
      vertex 100.852 8.19035 3
      vertex 100.852 11.8097 3
    endloop
  endfacet
  facet normal 0 0 1
    outer loop
      vertex 100.736 11.8596 3
      vertex 100.736 8.14045 3
      vertex 100.852 8.19035 3
    endloop
  endfacet
  facet normal 0 0 1
    outer loop
      vertex 100.618 11.9021 3
      vertex 100.736 8.14045 3
      vertex 100.736 11.8596 3
    endloop
  endfacet
  facet normal 0 0 1
    outer loop
      vertex 100.618 11.9021 3
      vertex 100.618 8.09789 3
      vertex 100.736 8.14045 3
    endloop
  endfacet
  facet normal 0 0 1
    outer loop
      vertex 100.497 11.9372 3
      vertex 100.618 8.09789 3
      vertex 100.618 11.9021 3
    endloop
  endfacet
  facet normal 0 0 1
    outer loop
      vertex 100.375 11.9646 3
      vertex 100.618 8.09789 3
      vertex 100.497 11.9372 3
    endloop
  endfacet
  facet normal 0 0 1
    outer loop
      vertex 100.251 11.9842 3
      vertex 100.618 8.09789 3
      vertex 100.375 11.9646 3
    endloop
  endfacet
  facet normal 0 0 1
    outer loop
      vertex 100.126 11.9961 3
      vertex 100.618 8.09789 3
      vertex 100.251 11.9842 3
    endloop
  endfacet
  facet normal 0 0 1
    outer loop
      vertex 100 12 3
      vertex 100.618 8.09789 3
      vertex 100.126 11.9961 3
    endloop
  endfacet
  facet normal -0 0 1
    outer loop
      vertex 99.8744 11.9961 3
      vertex 100.618 8.09789 3
      vertex 100 12 3
    endloop
  endfacet
  facet normal 0 0 1
    outer loop
      vertex 99.8744 11.9961 3
      vertex 70.618 -1.90211 3
      vertex 100.618 8.09789 3
    endloop
  endfacet
  facet normal -0 0 1
    outer loop
      vertex 57.7019 1.92836 3
      vertex 70.618 -1.90211 3
      vertex 99.8744 11.9961 3
    endloop
  endfacet
  facet normal 0 -0 1
    outer loop
      vertex 70 -2 3
      vertex 70.618 -1.90211 3
      vertex 57.7019 1.92836 3
    endloop
  endfacet
  facet normal 0 0 1
    outer loop
      vertex 70.618 -1.90211 3
      vertex 70 -2 3
      vertex 70.4974 -1.93717 3
    endloop
  endfacet
  facet normal 0 0 1
    outer loop
      vertex 70.4974 -1.93717 3
      vertex 70 -2 3
      vertex 70.3748 -1.96457 3
    endloop
  endfacet
  facet normal 0 0 1
    outer loop
      vertex 70.3748 -1.96457 3
      vertex 70 -2 3
      vertex 70.2507 -1.98423 3
    endloop
  endfacet
  facet normal 0 0 1
    outer loop
      vertex 70.2507 -1.98423 3
      vertex 70 -2 3
      vertex 70.1256 -1.99605 3
    endloop
  endfacet
  facet normal 0 0 1
    outer loop
      vertex 70 -2 3
      vertex 57.7019 1.92836 3
      vertex 60 0 3
    endloop
  endfacet
  facet normal -0 0 1
    outer loop
      vertex 3.72086 3.34577 3
      vertex 57.7019 1.92836 3
      vertex 99.8744 11.9961 3
    endloop
  endfacet
  facet normal 0 0 1
    outer loop
      vertex 3.72086 3.34577 3
      vertex 54.2164 -2.22548 3
      vertex 57.7019 1.92836 3
    endloop
  endfacet
  facet normal 0 0 1
    outer loop
      vertex 1.14045 10.7362 3
      vertex 3.61803 11.9021 3
      vertex 3.49738 11.9372 3
    endloop
  endfacet
  facet normal 0 0 1
    outer loop
      vertex 1.14045 10.7362 3
      vertex 3.49738 11.9372 3
      vertex 3.37476 11.9646 3
    endloop
  endfacet
  facet normal 0 0 1
    outer loop
      vertex 1.14045 10.7362 3
      vertex 3.37476 11.9646 3
      vertex 3.25067 11.9842 3
    endloop
  endfacet
  facet normal 0 0 1
    outer loop
      vertex 1.14045 10.7362 3
      vertex 3.25067 11.9842 3
      vertex 3.12558 11.9961 3
    endloop
  endfacet
  facet normal 0 0 1
    outer loop
      vertex 1.14045 10.7362 3
      vertex 3.12558 11.9961 3
      vertex 3 12 3
    endloop
  endfacet
  facet normal 0 0 1
    outer loop
      vertex 1.14045 10.7362 3
      vertex 3 12 3
      vertex 2.87442 11.9961 3
    endloop
  endfacet
  facet normal 0 0 1
    outer loop
      vertex 1.14045 10.7362 3
      vertex 2.87442 11.9961 3
      vertex 2.74933 11.9842 3
    endloop
  endfacet
  facet normal 0 0 1
    outer loop
      vertex 1.14045 10.7362 3
      vertex 2.74933 11.9842 3
      vertex 2.62524 11.9646 3
    endloop
  endfacet
  facet normal 0 0 1
    outer loop
      vertex 1.14045 10.7362 3
      vertex 2.62524 11.9646 3
      vertex 2.50262 11.9372 3
    endloop
  endfacet
  facet normal 0 0 1
    outer loop
      vertex 1.14045 10.7362 3
      vertex 2.50262 11.9372 3
      vertex 2.38197 11.9021 3
    endloop
  endfacet
  facet normal 0 0 1
    outer loop
      vertex 1.14045 10.7362 3
      vertex 2.38197 11.9021 3
      vertex 2.26375 11.8596 3
    endloop
  endfacet
  facet normal 0 0 1
    outer loop
      vertex 1.14045 10.7362 3
      vertex 2.26375 11.8596 3
      vertex 2.14844 11.8097 3
    endloop
  endfacet
  facet normal 0 0 1
    outer loop
      vertex 1.14045 10.7362 3
      vertex 2.14844 11.8097 3
      vertex 2.03649 11.7526 3
    endloop
  endfacet
  facet normal 0 0 1
    outer loop
      vertex 1.14045 10.7362 3
      vertex 2.03649 11.7526 3
      vertex 1.92835 11.6887 3
    endloop
  endfacet
  facet normal 0 0 1
    outer loop
      vertex 1.14045 10.7362 3
      vertex 1.92835 11.6887 3
      vertex 1.82443 11.618 3
    endloop
  endfacet
  facet normal 0 0 1
    outer loop
      vertex 1.14045 10.7362 3
      vertex 1.82443 11.618 3
      vertex 1.72515 11.541 3
    endloop
  endfacet
  facet normal 0 0 1
    outer loop
      vertex 1.14045 10.7362 3
      vertex 1.72515 11.541 3
      vertex 1.63091 11.4579 3
    endloop
  endfacet
  facet normal 0 0 1
    outer loop
      vertex 1.14045 10.7362 3
      vertex 1.63091 11.4579 3
      vertex 1.54206 11.3691 3
    endloop
  endfacet
  facet normal 0 0 1
    outer loop
      vertex 1.14045 10.7362 3
      vertex 1.54206 11.3691 3
      vertex 1.45897 11.2748 3
    endloop
  endfacet
  facet normal 0 0 1
    outer loop
      vertex 1.14045 10.7362 3
      vertex 1.45897 11.2748 3
      vertex 1.38197 11.1756 3
    endloop
  endfacet
  facet normal 0 0 1
    outer loop
      vertex 1.14045 10.7362 3
      vertex 1.38197 11.1756 3
      vertex 1.31134 11.0717 3
    endloop
  endfacet
  facet normal 0 0 1
    outer loop
      vertex 1.14045 10.7362 3
      vertex 1.31134 11.0717 3
      vertex 1.24739 10.9635 3
    endloop
  endfacet
  facet normal 0 0 1
    outer loop
      vertex 1.14045 10.7362 3
      vertex 1.24739 10.9635 3
      vertex 1.19035 10.8516 3
    endloop
  endfacet
  facet normal 0 0 1
    outer loop
      vertex 4.96457 9.62524 3
      vertex 1.14045 10.7362 3
      vertex 3.72086 3.34577 3
    endloop
  endfacet
  facet normal 0 0 1
    outer loop
      vertex 3.72086 3.34577 3
      vertex 0 -3 3
      vertex 54.2164 -2.22548 3
    endloop
  endfacet
  facet normal 0 0 1
    outer loop
      vertex -2.78933 1.10437 3
      vertex 3.72086 3.34577 3
      vertex 1.14045 10.7362 3
    endloop
  endfacet
  facet normal 0 0 1
    outer loop
      vertex 3.72086 3.34577 3
      vertex -2.78933 1.10437 3
      vertex 0 -3 3
    endloop
  endfacet
  facet normal 0 0 1
    outer loop
      vertex 0 -3 3
      vertex -2.78933 1.10437 3
      vertex -0.188371 -2.99408 3
    endloop
  endfacet
  facet normal 0 0 1
    outer loop
      vertex -0.188371 -2.99408 3
      vertex -2.78933 1.10437 3
      vertex -0.375999 -2.97634 3
    endloop
  endfacet
  facet normal 0 0 1
    outer loop
      vertex -0.375999 -2.97634 3
      vertex -2.78933 1.10437 3
      vertex -0.562143 -2.94686 3
    endloop
  endfacet
  facet normal 0 0 1
    outer loop
      vertex -0.562143 -2.94686 3
      vertex -2.78933 1.10437 3
      vertex -0.746069 -2.90575 3
    endloop
  endfacet
  facet normal 0 0 1
    outer loop
      vertex -0.746069 -2.90575 3
      vertex -2.78933 1.10437 3
      vertex -0.927051 -2.85317 3
    endloop
  endfacet
  facet normal 0 0 1
    outer loop
      vertex -0.927051 -2.85317 3
      vertex -2.78933 1.10437 3
      vertex -1.10437 -2.78933 3
    endloop
  endfacet
  facet normal 0 0 1
    outer loop
      vertex -1.10437 -2.78933 3
      vertex -2.78933 1.10437 3
      vertex -1.27734 -2.71448 3
    endloop
  endfacet
  facet normal 0 0 1
    outer loop
      vertex -1.27734 -2.71448 3
      vertex -2.78933 1.10437 3
      vertex -1.44526 -2.62892 3
    endloop
  endfacet
  facet normal 0 0 1
    outer loop
      vertex -1.44526 -2.62892 3
      vertex -2.78933 1.10437 3
      vertex -1.60748 -2.53298 3
    endloop
  endfacet
  facet normal 0 0 1
    outer loop
      vertex -1.60748 -2.53298 3
      vertex -2.78933 1.10437 3
      vertex -1.76336 -2.42705 3
    endloop
  endfacet
  facet normal 0 0 1
    outer loop
      vertex -1.76336 -2.42705 3
      vertex -2.78933 1.10437 3
      vertex -1.91227 -2.31154 3
    endloop
  endfacet
  facet normal 0 0 1
    outer loop
      vertex -1.91227 -2.31154 3
      vertex -2.78933 1.10437 3
      vertex -2.05364 -2.18691 3
    endloop
  endfacet
  facet normal 0 0 1
    outer loop
      vertex -2.05364 -2.18691 3
      vertex -2.78933 1.10437 3
      vertex -2.18691 -2.05364 3
    endloop
  endfacet
  facet normal 0 0 1
    outer loop
      vertex -2.18691 -2.05364 3
      vertex -2.78933 1.10437 3
      vertex -2.31154 -1.91227 3
    endloop
  endfacet
  facet normal 0 0 1
    outer loop
      vertex -2.31154 -1.91227 3
      vertex -2.78933 1.10437 3
      vertex -2.42705 -1.76336 3
    endloop
  endfacet
  facet normal 0 0 1
    outer loop
      vertex -2.42705 -1.76336 3
      vertex -2.78933 1.10437 3
      vertex -2.53298 -1.60748 3
    endloop
  endfacet
  facet normal 0 0 1
    outer loop
      vertex -2.53298 -1.60748 3
      vertex -2.78933 1.10437 3
      vertex -2.62892 -1.44526 3
    endloop
  endfacet
  facet normal 0 0 1
    outer loop
      vertex -2.62892 -1.44526 3
      vertex -2.78933 1.10437 3
      vertex -2.71448 -1.27734 3
    endloop
  endfacet
  facet normal 0 0 1
    outer loop
      vertex -2.78933 1.10437 3
      vertex -2.78933 -1.10437 3
      vertex -2.71448 -1.27734 3
    endloop
  endfacet
  facet normal -0 0 1
    outer loop
      vertex -2.85317 0.927051 3
      vertex -2.78933 -1.10437 3
      vertex -2.78933 1.10437 3
    endloop
  endfacet
  facet normal 0 0 1
    outer loop
      vertex -2.85317 0.927051 3
      vertex -2.85317 -0.927051 3
      vertex -2.78933 -1.10437 3
    endloop
  endfacet
  facet normal -0 0 1
    outer loop
      vertex -2.90575 0.746069 3
      vertex -2.85317 -0.927051 3
      vertex -2.85317 0.927051 3
    endloop
  endfacet
  facet normal 0 0 1
    outer loop
      vertex -2.90575 0.746069 3
      vertex -2.90575 -0.746069 3
      vertex -2.85317 -0.927051 3
    endloop
  endfacet
  facet normal -0 0 1
    outer loop
      vertex -2.94686 0.562143 3
      vertex -2.90575 -0.746069 3
      vertex -2.90575 0.746069 3
    endloop
  endfacet
  facet normal 0 0 1
    outer loop
      vertex -2.94686 0.562143 3
      vertex -2.94686 -0.562143 3
      vertex -2.90575 -0.746069 3
    endloop
  endfacet
  facet normal -0 0 1
    outer loop
      vertex -2.97634 0.375999 3
      vertex -2.94686 -0.562143 3
      vertex -2.94686 0.562143 3
    endloop
  endfacet
  facet normal 0 0 1
    outer loop
      vertex -2.97634 0.375999 3
      vertex -2.97634 -0.375999 3
      vertex -2.94686 -0.562143 3
    endloop
  endfacet
  facet normal -0 0 1
    outer loop
      vertex -2.99408 0.188371 3
      vertex -2.97634 -0.375999 3
      vertex -2.97634 0.375999 3
    endloop
  endfacet
  facet normal 0 0 1
    outer loop
      vertex -2.99408 0.188371 3
      vertex -2.99408 -0.188371 3
      vertex -2.97634 -0.375999 3
    endloop
  endfacet
  facet normal 0 -0 1
    outer loop
      vertex -2.99408 -0.188371 3
      vertex -2.99408 0.188371 3
      vertex -3 0 3
    endloop
  endfacet
  facet normal 0 0 1
    outer loop
      vertex 70 -2 3
      vertex 60 0 3
      vertex 58.1801 -2.16886 3
    endloop
  endfacet
  facet normal -0.960294 0.27899 0
    outer loop
      vertex -2.90575 0.746069 0
      vertex -2.85317 0.927051 3
      vertex -2.85317 0.927051 0
    endloop
  endfacet
  facet normal -0.960294 0.27899 0
    outer loop
      vertex -2.85317 0.927051 3
      vertex -2.90575 0.746069 0
      vertex -2.90575 0.746069 3
    endloop
  endfacet
  facet normal -0.975919 0.218131 0
    outer loop
      vertex -2.94686 0.562143 0
      vertex -2.90575 0.746069 3
      vertex -2.90575 0.746069 0
    endloop
  endfacet
  facet normal -0.975919 0.218131 0
    outer loop
      vertex -2.90575 0.746069 3
      vertex -2.94686 0.562143 0
      vertex -2.94686 0.562143 3
    endloop
  endfacet
  facet normal -0.98769 0.156422 0
    outer loop
      vertex -2.97634 0.375999 0
      vertex -2.94686 0.562143 3
      vertex -2.94686 0.562143 0
    endloop
  endfacet
  facet normal -0.98769 0.156422 0
    outer loop
      vertex -2.94686 0.562143 3
      vertex -2.97634 0.375999 0
      vertex -2.97634 0.375999 3
    endloop
  endfacet
  facet normal -0.0896019 0.995978 0
    outer loop
      vertex 99.8744 11.9961 0
      vertex 3.72086 3.34577 3
      vertex 99.8744 11.9961 3
    endloop
  endfacet
  facet normal -0.0896019 0.995978 0
    outer loop
      vertex 3.72086 3.34577 3
      vertex 99.8744 11.9961 0
      vertex 3.72086 3.34577 0
    endloop
  endfacet
  facet normal -0.940879 0.338744 0
    outer loop
      vertex -2.85317 0.927051 0
      vertex -2.78933 1.10437 3
      vertex -2.78933 1.10437 0
    endloop
  endfacet
  facet normal -0.940879 0.338744 0
    outer loop
      vertex -2.78933 1.10437 3
      vertex -2.85317 0.927051 0
      vertex -2.85317 0.927051 3
    endloop
  endfacet
  facet normal 0.339284 -0.940684 0
    outer loop
      vertex 100.618 8.09789 0
      vertex 100.736 8.14045 3
      vertex 100.618 8.09789 3
    endloop
  endfacet
  facet normal 0.339284 -0.940684 0
    outer loop
      vertex 100.736 8.14045 3
      vertex 100.618 8.09789 0
      vertex 100.736 8.14045 0
    endloop
  endfacet
  facet normal -0.338744 -0.940879 0
    outer loop
      vertex -1.10437 -2.78933 0
      vertex -0.927051 -2.85317 3
      vertex -1.10437 -2.78933 3
    endloop
  endfacet
  facet normal -0.338744 -0.940879 -0
    outer loop
      vertex -0.927051 -2.85317 3
      vertex -1.10437 -2.78933 0
      vertex -0.927051 -2.85317 0
    endloop
  endfacet
  facet normal -0.707107 -0.707107 0
    outer loop
      vertex -2.05364 -2.18691 0
      vertex -2.18691 -2.05364 3
      vertex -2.18691 -2.05364 0
    endloop
  endfacet
  facet normal -0.707107 -0.707107 0
    outer loop
      vertex -2.18691 -2.05364 3
      vertex -2.05364 -2.18691 0
      vertex -2.05364 -2.18691 3
    endloop
  endfacet
  facet normal -0.891005 -0.453993 0
    outer loop
      vertex -2.62892 -1.44526 0
      vertex -2.71448 -1.27734 3
      vertex -2.71448 -1.27734 0
    endloop
  endfacet
  facet normal -0.891005 -0.453993 0
    outer loop
      vertex -2.71448 -1.27734 3
      vertex -2.62892 -1.44526 0
      vertex -2.62892 -1.44526 3
    endloop
  endfacet
  facet normal 0.509212 0.860641 -0
    outer loop
      vertex 101.072 11.6887 0
      vertex 100.964 11.7526 3
      vertex 101.072 11.6887 3
    endloop
  endfacet
  facet normal 0.509212 0.860641 0
    outer loop
      vertex 100.964 11.7526 3
      vertex 101.072 11.6887 0
      vertex 100.964 11.7526 0
    endloop
  endfacet
  facet normal -0.031036 0.999518 0
    outer loop
      vertex 100 12 0
      vertex 99.8744 11.9961 3
      vertex 100 12 3
    endloop
  endfacet
  facet normal -0.031036 0.999518 0
    outer loop
      vertex 99.8744 11.9961 3
      vertex 100 12 0
      vertex 99.8744 11.9961 0
    endloop
  endfacet
  facet normal 0.509508 -0.860466 0
    outer loop
      vertex 100.964 8.24739 0
      vertex 101.072 8.31134 3
      vertex 100.964 8.24739 3
    endloop
  endfacet
  facet normal 0.509508 -0.860466 0
    outer loop
      vertex 101.072 8.31134 3
      vertex 100.964 8.24739 0
      vertex 101.072 8.31134 0
    endloop
  endfacet
  facet normal 0.9423 -0.334771 0
    outer loop
      vertex 101.86 9.26375 3
      vertex 101.902 9.38197 0
      vertex 101.902 9.38197 3
    endloop
  endfacet
  facet normal 0.9423 -0.334771 0
    outer loop
      vertex 101.902 9.38197 0
      vertex 101.86 9.26375 3
      vertex 101.86 9.26375 0
    endloop
  endfacet
  facet normal 0.21811 -0.975924 0
    outer loop
      vertex 70.3748 -1.96457 0
      vertex 70.4974 -1.93717 3
      vertex 70.3748 -1.96457 3
    endloop
  endfacet
  facet normal 0.21811 -0.975924 0
    outer loop
      vertex 70.4974 -1.93717 3
      vertex 70.3748 -1.96457 0
      vertex 70.4974 -1.93717 0
    endloop
  endfacet
  facet normal 0.156469 -0.987683 0
    outer loop
      vertex 70.2507 -1.98423 0
      vertex 70.3748 -1.96457 3
      vertex 70.2507 -1.98423 3
    endloop
  endfacet
  facet normal 0.156469 -0.987683 0
    outer loop
      vertex 70.3748 -1.96457 3
      vertex 70.2507 -1.98423 0
      vertex 70.3748 -1.96457 0
    endloop
  endfacet
  facet normal -0.509055 -0.860734 0
    outer loop
      vertex -1.60748 -2.53298 0
      vertex -1.44526 -2.62892 3
      vertex -1.60748 -2.53298 3
    endloop
  endfacet
  facet normal -0.509055 -0.860734 -0
    outer loop
      vertex -1.44526 -2.62892 3
      vertex -1.60748 -2.53298 0
      vertex -1.44526 -2.62892 0
    endloop
  endfacet
  facet normal -0.562062 -0.827095 0
    outer loop
      vertex -1.76336 -2.42705 0
      vertex -1.60748 -2.53298 3
      vertex -1.76336 -2.42705 3
    endloop
  endfacet
  facet normal -0.562062 -0.827095 -0
    outer loop
      vertex -1.60748 -2.53298 3
      vertex -1.76336 -2.42705 0
      vertex -1.60748 -2.53298 0
    endloop
  endfacet
  facet normal -0.790146 -0.612919 0
    outer loop
      vertex -2.31154 -1.91227 0
      vertex -2.42705 -1.76336 3
      vertex -2.42705 -1.76336 0
    endloop
  endfacet
  facet normal -0.790146 -0.612919 0
    outer loop
      vertex -2.42705 -1.76336 3
      vertex -2.31154 -1.91227 0
      vertex -2.31154 -1.91227 3
    endloop
  endfacet
  facet normal -0.960294 -0.27899 0
    outer loop
      vertex -2.85317 -0.927051 0
      vertex -2.90575 -0.746069 3
      vertex -2.90575 -0.746069 0
    endloop
  endfacet
  facet normal -0.960294 -0.27899 0
    outer loop
      vertex -2.90575 -0.746069 3
      vertex -2.85317 -0.927051 0
      vertex -2.85317 -0.927051 3
    endloop
  endfacet
  facet normal -0.98769 -0.156422 0
    outer loop
      vertex -2.94686 -0.562143 0
      vertex -2.97634 -0.375999 3
      vertex -2.97634 -0.375999 0
    endloop
  endfacet
  facet normal -0.98769 -0.156422 0
    outer loop
      vertex -2.97634 -0.375999 3
      vertex -2.94686 -0.562143 0
      vertex -2.94686 -0.562143 3
    endloop
  endfacet
  facet normal 0.278598 0.960408 -0
    outer loop
      vertex 100.618 11.9021 0
      vertex 100.497 11.9372 3
      vertex 100.618 11.9021 3
    endloop
  endfacet
  facet normal 0.278598 0.960408 0
    outer loop
      vertex 100.497 11.9372 3
      vertex 100.618 11.9021 0
      vertex 100.497 11.9372 0
    endloop
  endfacet
  facet normal 0.338861 0.940837 -0
    outer loop
      vertex 100.736 11.8596 0
      vertex 100.618 11.9021 3
      vertex 100.736 11.8596 3
    endloop
  endfacet
  facet normal 0.338861 0.940837 0
    outer loop
      vertex 100.618 11.9021 3
      vertex 100.736 11.8596 0
      vertex 100.618 11.9021 0
    endloop
  endfacet
  facet normal 0.98848 -0.151351 0
    outer loop
      vertex 101.965 9.62524 3
      vertex 101.984 9.74933 0
      vertex 101.984 9.74933 3
    endloop
  endfacet
  facet normal 0.98848 -0.151351 0
    outer loop
      vertex 101.984 9.74933 0
      vertex 101.965 9.62524 3
      vertex 101.965 9.62524 0
    endloop
  endfacet
  facet normal 0.891058 0.45389 0
    outer loop
      vertex 101.81 10.8516 3
      vertex 101.753 10.9635 0
      vertex 101.753 10.9635 3
    endloop
  endfacet
  facet normal 0.891058 0.45389 0
    outer loop
      vertex 101.753 10.9635 0
      vertex 101.81 10.8516 3
      vertex 101.81 10.8516 0
    endloop
  endfacet
  facet normal 0.0947715 0.995499 -0
    outer loop
      vertex 100.251 11.9842 0
      vertex 100.126 11.9961 3
      vertex 100.251 11.9842 3
    endloop
  endfacet
  facet normal 0.0947715 0.995499 0
    outer loop
      vertex 100.126 11.9961 3
      vertex 100.251 11.9842 0
      vertex 100.126 11.9961 0
    endloop
  endfacet
  facet normal 0.395161 -0.918612 0
    outer loop
      vertex 100.736 8.14045 0
      vertex 100.852 8.19035 3
      vertex 100.736 8.14045 3
    endloop
  endfacet
  facet normal 0.395161 -0.918612 0
    outer loop
      vertex 100.852 8.19035 3
      vertex 100.736 8.14045 0
      vertex 100.852 8.19035 0
    endloop
  endfacet
  facet normal 0.750442 -0.660937 0
    outer loop
      vertex 101.458 8.63091 3
      vertex 101.541 8.72515 0
      vertex 101.541 8.72515 3
    endloop
  endfacet
  facet normal 0.750442 -0.660937 0
    outer loop
      vertex 101.541 8.72515 0
      vertex 101.458 8.63091 3
      vertex 101.458 8.63091 0
    endloop
  endfacet
  facet normal -0.999507 -0.0314118 0
    outer loop
      vertex -2.99408 -0.188371 0
      vertex -3 0 3
      vertex -3 0 0
    endloop
  endfacet
  facet normal -0.999507 -0.0314118 0
    outer loop
      vertex -3 0 3
      vertex -2.99408 -0.188371 0
      vertex -2.99408 -0.188371 3
    endloop
  endfacet
  facet normal -0.156422 -0.98769 0
    outer loop
      vertex -0.562143 -2.94686 0
      vertex -0.375999 -2.97634 3
      vertex -0.562143 -2.94686 3
    endloop
  endfacet
  facet normal -0.156422 -0.98769 -0
    outer loop
      vertex -0.375999 -2.97634 3
      vertex -0.562143 -2.94686 0
      vertex -0.375999 -2.97634 0
    endloop
  endfacet
  facet normal -0.27899 -0.960294 0
    outer loop
      vertex -0.927051 -2.85317 0
      vertex -0.746069 -2.90575 3
      vertex -0.927051 -2.85317 3
    endloop
  endfacet
  facet normal -0.27899 -0.960294 -0
    outer loop
      vertex -0.746069 -2.90575 3
      vertex -0.927051 -2.85317 0
      vertex -0.746069 -2.90575 0
    endloop
  endfacet
  facet normal -0.218131 -0.975919 0
    outer loop
      vertex -0.746069 -2.90575 0
      vertex -0.562143 -2.94686 3
      vertex -0.746069 -2.90575 3
    endloop
  endfacet
  facet normal -0.218131 -0.975919 -0
    outer loop
      vertex -0.562143 -2.94686 3
      vertex -0.746069 -2.90575 0
      vertex -0.562143 -2.94686 0
    endloop
  endfacet
  facet normal -0.612919 -0.790146 0
    outer loop
      vertex -1.91227 -2.31154 0
      vertex -1.76336 -2.42705 3
      vertex -1.91227 -2.31154 3
    endloop
  endfacet
  facet normal -0.612919 -0.790146 -0
    outer loop
      vertex -1.76336 -2.42705 3
      vertex -1.91227 -2.31154 0
      vertex -1.76336 -2.42705 0
    endloop
  endfacet
  facet normal -0.750123 -0.661299 0
    outer loop
      vertex -2.18691 -2.05364 0
      vertex -2.31154 -1.91227 3
      vertex -2.31154 -1.91227 0
    endloop
  endfacet
  facet normal -0.750123 -0.661299 0
    outer loop
      vertex -2.31154 -1.91227 3
      vertex -2.18691 -2.05364 0
      vertex -2.18691 -2.05364 3
    endloop
  endfacet
  facet normal -0.975919 -0.218131 0
    outer loop
      vertex -2.90575 -0.746069 0
      vertex -2.94686 -0.562143 3
      vertex -2.94686 -0.562143 0
    endloop
  endfacet
  facet normal -0.975919 -0.218131 0
    outer loop
      vertex -2.94686 -0.562143 3
      vertex -2.90575 -0.746069 0
      vertex -2.90575 -0.746069 3
    endloop
  endfacet
  facet normal -0.940879 -0.338744 0
    outer loop
      vertex -2.78933 -1.10437 0
      vertex -2.85317 -0.927051 3
      vertex -2.85317 -0.927051 0
    endloop
  endfacet
  facet normal -0.940879 -0.338744 0
    outer loop
      vertex -2.85317 -0.927051 3
      vertex -2.78933 -1.10437 0
      vertex -2.78933 -1.10437 3
    endloop
  endfacet
  facet normal -0.860734 -0.509055 0
    outer loop
      vertex -2.53298 -1.60748 0
      vertex -2.62892 -1.44526 3
      vertex -2.62892 -1.44526 0
    endloop
  endfacet
  facet normal -0.860734 -0.509055 0
    outer loop
      vertex -2.62892 -1.44526 3
      vertex -2.53298 -1.60748 0
      vertex -2.53298 -1.60748 3
    endloop
  endfacet
  facet normal -0.827095 -0.562062 0
    outer loop
      vertex -2.42705 -1.76336 0
      vertex -2.53298 -1.60748 3
      vertex -2.53298 -1.60748 0
    endloop
  endfacet
  facet normal -0.827095 -0.562062 0
    outer loop
      vertex -2.53298 -1.60748 3
      vertex -2.42705 -1.76336 0
      vertex -2.42705 -1.76336 3
    endloop
  endfacet
  facet normal 0.562201 0.827 -0
    outer loop
      vertex 101.176 11.618 0
      vertex 101.072 11.6887 3
      vertex 101.176 11.618 3
    endloop
  endfacet
  facet normal 0.562201 0.827 0
    outer loop
      vertex 101.072 11.6887 3
      vertex 101.176 11.618 0
      vertex 101.072 11.6887 0
    endloop
  endfacet
  facet normal 0.960405 -0.278609 0
    outer loop
      vertex 101.902 9.38197 3
      vertex 101.937 9.50262 0
      vertex 101.937 9.50262 3
    endloop
  endfacet
  facet normal 0.960405 -0.278609 0
    outer loop
      vertex 101.937 9.50262 0
      vertex 101.902 9.38197 3
      vertex 101.902 9.38197 0
    endloop
  endfacet
  facet normal 0.999493 -0.0318361 0
    outer loop
      vertex 101.996 9.87442 3
      vertex 102 10 0
      vertex 102 10 3
    endloop
  endfacet
  facet normal 0.999493 -0.0318361 0
    outer loop
      vertex 102 10 0
      vertex 101.996 9.87442 3
      vertex 101.996 9.87442 0
    endloop
  endfacet
  facet normal 0.999493 0.031831 0
    outer loop
      vertex 102 10 3
      vertex 101.996 10.1256 0
      vertex 101.996 10.1256 3
    endloop
  endfacet
  facet normal 0.999493 0.031831 0
    outer loop
      vertex 101.996 10.1256 0
      vertex 102 10 3
      vertex 102 10 0
    endloop
  endfacet
  facet normal 0.789952 0.613168 0
    outer loop
      vertex 101.618 11.1756 3
      vertex 101.541 11.2748 0
      vertex 101.541 11.2748 3
    endloop
  endfacet
  facet normal 0.789952 0.613168 0
    outer loop
      vertex 101.541 11.2748 0
      vertex 101.618 11.1756 3
      vertex 101.618 11.1756 0
    endloop
  endfacet
  facet normal 0.825638 0.5642 0
    outer loop
      vertex 101.689 11.0717 3
      vertex 101.618 11.1756 0
      vertex 101.618 11.1756 3
    endloop
  endfacet
  facet normal 0.825638 0.5642 0
    outer loop
      vertex 101.618 11.1756 0
      vertex 101.689 11.0717 3
      vertex 101.689 11.0717 0
    endloop
  endfacet
  facet normal 0.995431 0.095485 0
    outer loop
      vertex 101.996 10.1256 3
      vertex 101.984 10.2507 0
      vertex 101.984 10.2507 3
    endloop
  endfacet
  facet normal 0.995431 0.095485 0
    outer loop
      vertex 101.984 10.2507 0
      vertex 101.996 10.1256 3
      vertex 101.996 10.1256 0
    endloop
  endfacet
  facet normal 0.0309376 0.999521 -0
    outer loop
      vertex 100.126 11.9961 0
      vertex 100 12 3
      vertex 100.126 11.9961 3
    endloop
  endfacet
  facet normal 0.0309376 0.999521 0
    outer loop
      vertex 100 12 3
      vertex 100.126 11.9961 0
      vertex 100 12 0
    endloop
  endfacet
  facet normal 0.825689 -0.564126 0
    outer loop
      vertex 101.618 8.82443 3
      vertex 101.689 8.92835 0
      vertex 101.689 8.92835 3
    endloop
  endfacet
  facet normal 0.825689 -0.564126 0
    outer loop
      vertex 101.689 8.92835 0
      vertex 101.618 8.82443 3
      vertex 101.618 8.82443 0
    endloop
  endfacet
  facet normal 0.613941 -0.789352 0
    outer loop
      vertex 101.176 8.38197 0
      vertex 101.275 8.45897 3
      vertex 101.176 8.38197 3
    endloop
  endfacet
  facet normal 0.613941 -0.789352 0
    outer loop
      vertex 101.275 8.45897 3
      vertex 101.176 8.38197 0
      vertex 101.275 8.45897 0
    endloop
  endfacet
  facet normal 0.56182 -0.827259 0
    outer loop
      vertex 101.072 8.31134 0
      vertex 101.176 8.38197 3
      vertex 101.072 8.31134 3
    endloop
  endfacet
  facet normal 0.56182 -0.827259 0
    outer loop
      vertex 101.176 8.38197 3
      vertex 101.072 8.31134 0
      vertex 101.176 8.38197 0
    endloop
  endfacet
  facet normal -0.094129 -0.99556 0
    outer loop
      vertex -0.375999 -2.97634 0
      vertex -0.188371 -2.99408 3
      vertex -0.375999 -2.97634 3
    endloop
  endfacet
  facet normal -0.094129 -0.99556 -0
    outer loop
      vertex -0.188371 -2.99408 3
      vertex -0.375999 -2.97634 0
      vertex -0.188371 -2.99408 0
    endloop
  endfacet
  facet normal -0.397144 -0.917756 0
    outer loop
      vertex -1.27734 -2.71448 0
      vertex -1.10437 -2.78933 3
      vertex -1.27734 -2.71448 3
    endloop
  endfacet
  facet normal -0.397144 -0.917756 -0
    outer loop
      vertex -1.10437 -2.78933 3
      vertex -1.27734 -2.71448 0
      vertex -1.10437 -2.78933 0
    endloop
  endfacet
  facet normal -0.453993 -0.891005 0
    outer loop
      vertex -1.44526 -2.62892 0
      vertex -1.27734 -2.71448 3
      vertex -1.44526 -2.62892 3
    endloop
  endfacet
  facet normal -0.453993 -0.891005 -0
    outer loop
      vertex -1.27734 -2.71448 3
      vertex -1.44526 -2.62892 0
      vertex -1.27734 -2.71448 0
    endloop
  endfacet
  facet normal -0 0 -1
    outer loop
      vertex 70 -2 0
      vertex 58.1801 -2.16886 0
      vertex 60 0 0
    endloop
  endfacet
  facet normal 0 0 -1
    outer loop
      vertex 101.996 9.87442 0
      vertex 101.996 10.1256 0
      vertex 102 10 0
    endloop
  endfacet
  facet normal 0 0 -1
    outer loop
      vertex 101.984 9.74933 0
      vertex 101.996 10.1256 0
      vertex 101.996 9.87442 0
    endloop
  endfacet
  facet normal 0 0 -1
    outer loop
      vertex 101.984 9.74933 0
      vertex 101.984 10.2507 0
      vertex 101.996 10.1256 0
    endloop
  endfacet
  facet normal 0 0 -1
    outer loop
      vertex 101.965 9.62524 0
      vertex 101.984 10.2507 0
      vertex 101.984 9.74933 0
    endloop
  endfacet
  facet normal 0 0 -1
    outer loop
      vertex 101.965 9.62524 0
      vertex 101.965 10.3748 0
      vertex 101.984 10.2507 0
    endloop
  endfacet
  facet normal 0 0 -1
    outer loop
      vertex 101.937 9.50262 0
      vertex 101.965 10.3748 0
      vertex 101.965 9.62524 0
    endloop
  endfacet
  facet normal 0 0 -1
    outer loop
      vertex 101.937 9.50262 0
      vertex 101.937 10.4974 0
      vertex 101.965 10.3748 0
    endloop
  endfacet
  facet normal 0 0 -1
    outer loop
      vertex 101.902 9.38197 0
      vertex 101.937 10.4974 0
      vertex 101.937 9.50262 0
    endloop
  endfacet
  facet normal 0 0 -1
    outer loop
      vertex 101.902 9.38197 0
      vertex 101.902 10.618 0
      vertex 101.937 10.4974 0
    endloop
  endfacet
  facet normal 0 0 -1
    outer loop
      vertex 101.86 9.26375 0
      vertex 101.902 10.618 0
      vertex 101.902 9.38197 0
    endloop
  endfacet
  facet normal 0 0 -1
    outer loop
      vertex 101.86 9.26375 0
      vertex 101.86 10.7362 0
      vertex 101.902 10.618 0
    endloop
  endfacet
  facet normal 0 0 -1
    outer loop
      vertex 101.81 9.14844 0
      vertex 101.86 10.7362 0
      vertex 101.86 9.26375 0
    endloop
  endfacet
  facet normal 0 0 -1
    outer loop
      vertex 101.81 9.14844 0
      vertex 101.81 10.8516 0
      vertex 101.86 10.7362 0
    endloop
  endfacet
  facet normal 0 0 -1
    outer loop
      vertex 101.753 9.03649 0
      vertex 101.81 10.8516 0
      vertex 101.81 9.14844 0
    endloop
  endfacet
  facet normal 0 0 -1
    outer loop
      vertex 101.753 9.03649 0
      vertex 101.753 10.9635 0
      vertex 101.81 10.8516 0
    endloop
  endfacet
  facet normal 0 0 -1
    outer loop
      vertex 101.689 8.92835 0
      vertex 101.753 10.9635 0
      vertex 101.753 9.03649 0
    endloop
  endfacet
  facet normal 0 0 -1
    outer loop
      vertex 101.689 8.92835 0
      vertex 101.689 11.0717 0
      vertex 101.753 10.9635 0
    endloop
  endfacet
  facet normal 0 0 -1
    outer loop
      vertex 101.618 8.82443 0
      vertex 101.689 11.0717 0
      vertex 101.689 8.92835 0
    endloop
  endfacet
  facet normal 0 0 -1
    outer loop
      vertex 101.618 8.82443 0
      vertex 101.618 11.1756 0
      vertex 101.689 11.0717 0
    endloop
  endfacet
  facet normal 0 0 -1
    outer loop
      vertex 101.541 8.72515 0
      vertex 101.618 11.1756 0
      vertex 101.618 8.82443 0
    endloop
  endfacet
  facet normal 0 0 -1
    outer loop
      vertex 101.541 8.72515 0
      vertex 101.541 11.2748 0
      vertex 101.618 11.1756 0
    endloop
  endfacet
  facet normal 0 0 -1
    outer loop
      vertex 101.458 8.63091 0
      vertex 101.541 11.2748 0
      vertex 101.541 8.72515 0
    endloop
  endfacet
  facet normal 0 0 -1
    outer loop
      vertex 101.458 8.63091 0
      vertex 101.458 11.3691 0
      vertex 101.541 11.2748 0
    endloop
  endfacet
  facet normal 0 0 -1
    outer loop
      vertex 101.369 8.54206 0
      vertex 101.458 11.3691 0
      vertex 101.458 8.63091 0
    endloop
  endfacet
  facet normal 0 0 -1
    outer loop
      vertex 101.369 8.54206 0
      vertex 101.369 11.4579 0
      vertex 101.458 11.3691 0
    endloop
  endfacet
  facet normal 0 0 -1
    outer loop
      vertex 101.275 8.45897 0
      vertex 101.369 11.4579 0
      vertex 101.369 8.54206 0
    endloop
  endfacet
  facet normal 0 0 -1
    outer loop
      vertex 101.275 8.45897 0
      vertex 101.275 11.541 0
      vertex 101.369 11.4579 0
    endloop
  endfacet
  facet normal 0 0 -1
    outer loop
      vertex 101.176 8.38197 0
      vertex 101.275 11.541 0
      vertex 101.275 8.45897 0
    endloop
  endfacet
  facet normal 0 0 -1
    outer loop
      vertex 101.176 8.38197 0
      vertex 101.176 11.618 0
      vertex 101.275 11.541 0
    endloop
  endfacet
  facet normal 0 0 -1
    outer loop
      vertex 101.072 8.31134 0
      vertex 101.176 11.618 0
      vertex 101.176 8.38197 0
    endloop
  endfacet
  facet normal 0 0 -1
    outer loop
      vertex 101.072 8.31134 0
      vertex 101.072 11.6887 0
      vertex 101.176 11.618 0
    endloop
  endfacet
  facet normal 0 0 -1
    outer loop
      vertex 100.964 8.24739 0
      vertex 101.072 11.6887 0
      vertex 101.072 8.31134 0
    endloop
  endfacet
  facet normal 0 0 -1
    outer loop
      vertex 100.964 8.24739 0
      vertex 100.964 11.7526 0
      vertex 101.072 11.6887 0
    endloop
  endfacet
  facet normal 0 0 -1
    outer loop
      vertex 100.852 8.19035 0
      vertex 100.964 11.7526 0
      vertex 100.964 8.24739 0
    endloop
  endfacet
  facet normal 0 0 -1
    outer loop
      vertex 100.852 8.19035 0
      vertex 100.852 11.8097 0
      vertex 100.964 11.7526 0
    endloop
  endfacet
  facet normal 0 0 -1
    outer loop
      vertex 100.736 8.14045 0
      vertex 100.852 11.8097 0
      vertex 100.852 8.19035 0
    endloop
  endfacet
  facet normal 0 0 -1
    outer loop
      vertex 100.736 8.14045 0
      vertex 100.736 11.8596 0
      vertex 100.852 11.8097 0
    endloop
  endfacet
  facet normal 0 0 -1
    outer loop
      vertex 100.618 8.09789 0
      vertex 100.736 11.8596 0
      vertex 100.736 8.14045 0
    endloop
  endfacet
  facet normal 0 0 -1
    outer loop
      vertex 100.618 8.09789 0
      vertex 100.618 11.9021 0
      vertex 100.736 11.8596 0
    endloop
  endfacet
  facet normal 0 0 -1
    outer loop
      vertex 100.618 8.09789 0
      vertex 100.497 11.9372 0
      vertex 100.618 11.9021 0
    endloop
  endfacet
  facet normal 0 0 -1
    outer loop
      vertex 100.618 8.09789 0
      vertex 100.375 11.9646 0
      vertex 100.497 11.9372 0
    endloop
  endfacet
  facet normal 0 0 -1
    outer loop
      vertex 100.618 8.09789 0
      vertex 100.251 11.9842 0
      vertex 100.375 11.9646 0
    endloop
  endfacet
  facet normal 0 0 -1
    outer loop
      vertex 100.618 8.09789 0
      vertex 100.126 11.9961 0
      vertex 100.251 11.9842 0
    endloop
  endfacet
  facet normal 0 0 -1
    outer loop
      vertex 100.618 8.09789 0
      vertex 100 12 0
      vertex 100.126 11.9961 0
    endloop
  endfacet
  facet normal 0 0 -1
    outer loop
      vertex 100.618 8.09789 0
      vertex 99.8744 11.9961 0
      vertex 100 12 0
    endloop
  endfacet
  facet normal 0 0 -1
    outer loop
      vertex 70.618 -1.90211 0
      vertex 99.8744 11.9961 0
      vertex 100.618 8.09789 0
    endloop
  endfacet
  facet normal 0 0 -1
    outer loop
      vertex 70 -2 0
      vertex 70.618 -1.90211 0
      vertex 70.4974 -1.93717 0
    endloop
  endfacet
  facet normal 0 0 -1
    outer loop
      vertex 70 -2 0
      vertex 70.4974 -1.93717 0
      vertex 70.3748 -1.96457 0
    endloop
  endfacet
  facet normal 0 0 -1
    outer loop
      vertex 70 -2 0
      vertex 70.3748 -1.96457 0
      vertex 70.2507 -1.98423 0
    endloop
  endfacet
  facet normal 0 0 -1
    outer loop
      vertex 70 -2 0
      vertex 70.2507 -1.98423 0
      vertex 70.1256 -1.99605 0
    endloop
  endfacet
  facet normal -0 0 -1
    outer loop
      vertex 70.618 -1.90211 0
      vertex 70 -2 0
      vertex 57.7019 1.92836 0
    endloop
  endfacet
  facet normal 0 0 -1
    outer loop
      vertex 57.7019 1.92836 0
      vertex 70 -2 0
      vertex 60 0 0
    endloop
  endfacet
  facet normal 0 0 -1
    outer loop
      vertex 70.618 -1.90211 0
      vertex 57.7019 1.92836 0
      vertex 99.8744 11.9961 0
    endloop
  endfacet
  facet normal 0 0 -1
    outer loop
      vertex 57.7019 1.92836 0
      vertex 3.72086 3.34577 0
      vertex 99.8744 11.9961 0
    endloop
  endfacet
  facet normal 0 0 -1
    outer loop
      vertex 54.2164 -2.22548 0
      vertex 3.72086 3.34577 0
      vertex 57.7019 1.92836 0
    endloop
  endfacet
  facet normal 0 0 -1
    outer loop
      vertex 4.96457 9.62524 0
      vertex 3.49738 11.9372 0
      vertex 3.61803 11.9021 0
    endloop
  endfacet
  facet normal 0 0 -1
    outer loop
      vertex 4.96457 9.62524 0
      vertex 1.14045 10.7362 0
      vertex 3.49738 11.9372 0
    endloop
  endfacet
  facet normal -0 0 -1
    outer loop
      vertex 3.49738 11.9372 0
      vertex 1.14045 10.7362 0
      vertex 3.37476 11.9646 0
    endloop
  endfacet
  facet normal -0 0 -1
    outer loop
      vertex 3.37476 11.9646 0
      vertex 1.14045 10.7362 0
      vertex 3.25067 11.9842 0
    endloop
  endfacet
  facet normal -0 0 -1
    outer loop
      vertex 3.25067 11.9842 0
      vertex 1.14045 10.7362 0
      vertex 3.12558 11.9961 0
    endloop
  endfacet
  facet normal -0 0 -1
    outer loop
      vertex 3.12558 11.9961 0
      vertex 1.14045 10.7362 0
      vertex 3 12 0
    endloop
  endfacet
  facet normal 0 0 -1
    outer loop
      vertex 3 12 0
      vertex 1.14045 10.7362 0
      vertex 2.87442 11.9961 0
    endloop
  endfacet
  facet normal 0 0 -1
    outer loop
      vertex 2.87442 11.9961 0
      vertex 1.14045 10.7362 0
      vertex 2.74933 11.9842 0
    endloop
  endfacet
  facet normal 0 0 -1
    outer loop
      vertex 2.74933 11.9842 0
      vertex 1.14045 10.7362 0
      vertex 2.62524 11.9646 0
    endloop
  endfacet
  facet normal 0 0 -1
    outer loop
      vertex 2.62524 11.9646 0
      vertex 1.14045 10.7362 0
      vertex 2.50262 11.9372 0
    endloop
  endfacet
  facet normal 0 0 -1
    outer loop
      vertex 2.50262 11.9372 0
      vertex 1.14045 10.7362 0
      vertex 2.38197 11.9021 0
    endloop
  endfacet
  facet normal 0 0 -1
    outer loop
      vertex 2.38197 11.9021 0
      vertex 1.14045 10.7362 0
      vertex 2.26375 11.8596 0
    endloop
  endfacet
  facet normal 0 0 -1
    outer loop
      vertex 2.26375 11.8596 0
      vertex 1.14045 10.7362 0
      vertex 2.14844 11.8097 0
    endloop
  endfacet
  facet normal 0 0 -1
    outer loop
      vertex 2.14844 11.8097 0
      vertex 1.14045 10.7362 0
      vertex 2.03649 11.7526 0
    endloop
  endfacet
  facet normal 0 0 -1
    outer loop
      vertex 2.03649 11.7526 0
      vertex 1.14045 10.7362 0
      vertex 1.92835 11.6887 0
    endloop
  endfacet
  facet normal 0 0 -1
    outer loop
      vertex 1.92835 11.6887 0
      vertex 1.14045 10.7362 0
      vertex 1.82443 11.618 0
    endloop
  endfacet
  facet normal 0 0 -1
    outer loop
      vertex 1.82443 11.618 0
      vertex 1.14045 10.7362 0
      vertex 1.72515 11.541 0
    endloop
  endfacet
  facet normal 0 0 -1
    outer loop
      vertex 1.72515 11.541 0
      vertex 1.14045 10.7362 0
      vertex 1.63091 11.4579 0
    endloop
  endfacet
  facet normal 0 0 -1
    outer loop
      vertex 1.63091 11.4579 0
      vertex 1.14045 10.7362 0
      vertex 1.54206 11.3691 0
    endloop
  endfacet
  facet normal 0 0 -1
    outer loop
      vertex 1.54206 11.3691 0
      vertex 1.14045 10.7362 0
      vertex 1.45897 11.2748 0
    endloop
  endfacet
  facet normal 0 0 -1
    outer loop
      vertex 1.45897 11.2748 0
      vertex 1.14045 10.7362 0
      vertex 1.38197 11.1756 0
    endloop
  endfacet
  facet normal 0 0 -1
    outer loop
      vertex 1.38197 11.1756 0
      vertex 1.14045 10.7362 0
      vertex 1.31134 11.0717 0
    endloop
  endfacet
  facet normal 0 0 -1
    outer loop
      vertex 1.31134 11.0717 0
      vertex 1.14045 10.7362 0
      vertex 1.24739 10.9635 0
    endloop
  endfacet
  facet normal 0 0 -1
    outer loop
      vertex 1.24739 10.9635 0
      vertex 1.14045 10.7362 0
      vertex 1.19035 10.8516 0
    endloop
  endfacet
  facet normal 0 0 -1
    outer loop
      vertex 0 -3 0
      vertex 3.72086 3.34577 0
      vertex 54.2164 -2.22548 0
    endloop
  endfacet
  facet normal 0 0 -1
    outer loop
      vertex -2.78933 1.10437 0
      vertex 3.72086 3.34577 0
      vertex 0 -3 0
    endloop
  endfacet
  facet normal 0 0 -1
    outer loop
      vertex -2.78933 1.10437 0
      vertex 0 -3 0
      vertex -0.188371 -2.99408 0
    endloop
  endfacet
  facet normal 0 0 -1
    outer loop
      vertex -2.78933 1.10437 0
      vertex -0.188371 -2.99408 0
      vertex -0.375999 -2.97634 0
    endloop
  endfacet
  facet normal 0 0 -1
    outer loop
      vertex -2.78933 1.10437 0
      vertex -0.375999 -2.97634 0
      vertex -0.562143 -2.94686 0
    endloop
  endfacet
  facet normal 0 0 -1
    outer loop
      vertex -2.78933 1.10437 0
      vertex -0.562143 -2.94686 0
      vertex -0.746069 -2.90575 0
    endloop
  endfacet
  facet normal 0 0 -1
    outer loop
      vertex -2.78933 1.10437 0
      vertex -0.746069 -2.90575 0
      vertex -0.927051 -2.85317 0
    endloop
  endfacet
  facet normal 0 0 -1
    outer loop
      vertex -2.78933 1.10437 0
      vertex -0.927051 -2.85317 0
      vertex -1.10437 -2.78933 0
    endloop
  endfacet
  facet normal 0 0 -1
    outer loop
      vertex -2.78933 1.10437 0
      vertex -1.10437 -2.78933 0
      vertex -1.27734 -2.71448 0
    endloop
  endfacet
  facet normal 0 0 -1
    outer loop
      vertex -2.78933 1.10437 0
      vertex -1.27734 -2.71448 0
      vertex -1.44526 -2.62892 0
    endloop
  endfacet
  facet normal 0 0 -1
    outer loop
      vertex -2.78933 1.10437 0
      vertex -1.44526 -2.62892 0
      vertex -1.60748 -2.53298 0
    endloop
  endfacet
  facet normal 0 0 -1
    outer loop
      vertex -2.78933 1.10437 0
      vertex -1.60748 -2.53298 0
      vertex -1.76336 -2.42705 0
    endloop
  endfacet
  facet normal 0 0 -1
    outer loop
      vertex -2.78933 1.10437 0
      vertex -1.76336 -2.42705 0
      vertex -1.91227 -2.31154 0
    endloop
  endfacet
  facet normal 0 0 -1
    outer loop
      vertex -2.78933 1.10437 0
      vertex -1.91227 -2.31154 0
      vertex -2.05364 -2.18691 0
    endloop
  endfacet
  facet normal 0 0 -1
    outer loop
      vertex -2.78933 1.10437 0
      vertex -2.05364 -2.18691 0
      vertex -2.18691 -2.05364 0
    endloop
  endfacet
  facet normal 0 0 -1
    outer loop
      vertex -2.78933 1.10437 0
      vertex -2.18691 -2.05364 0
      vertex -2.31154 -1.91227 0
    endloop
  endfacet
  facet normal 0 0 -1
    outer loop
      vertex -2.78933 1.10437 0
      vertex -2.31154 -1.91227 0
      vertex -2.42705 -1.76336 0
    endloop
  endfacet
  facet normal 0 0 -1
    outer loop
      vertex -2.78933 1.10437 0
      vertex -2.42705 -1.76336 0
      vertex -2.53298 -1.60748 0
    endloop
  endfacet
  facet normal 0 0 -1
    outer loop
      vertex -2.78933 1.10437 0
      vertex -2.53298 -1.60748 0
      vertex -2.62892 -1.44526 0
    endloop
  endfacet
  facet normal 0 0 -1
    outer loop
      vertex -2.78933 1.10437 0
      vertex -2.62892 -1.44526 0
      vertex -2.71448 -1.27734 0
    endloop
  endfacet
  facet normal 0 0 -1
    outer loop
      vertex -2.78933 1.10437 0
      vertex -2.71448 -1.27734 0
      vertex -2.78933 -1.10437 0
    endloop
  endfacet
  facet normal -0 0 -1
    outer loop
      vertex 3.72086 3.34577 0
      vertex -2.78933 1.10437 0
      vertex 1.14045 10.7362 0
    endloop
  endfacet
  facet normal 0 0 -1
    outer loop
      vertex -2.85317 -0.927051 0
      vertex -2.78933 1.10437 0
      vertex -2.78933 -1.10437 0
    endloop
  endfacet
  facet normal 0 0 -1
    outer loop
      vertex -2.85317 -0.927051 0
      vertex -2.85317 0.927051 0
      vertex -2.78933 1.10437 0
    endloop
  endfacet
  facet normal 0 0 -1
    outer loop
      vertex -2.90575 -0.746069 0
      vertex -2.85317 0.927051 0
      vertex -2.85317 -0.927051 0
    endloop
  endfacet
  facet normal 0 0 -1
    outer loop
      vertex -2.90575 -0.746069 0
      vertex -2.90575 0.746069 0
      vertex -2.85317 0.927051 0
    endloop
  endfacet
  facet normal 0 0 -1
    outer loop
      vertex -2.94686 -0.562143 0
      vertex -2.90575 0.746069 0
      vertex -2.90575 -0.746069 0
    endloop
  endfacet
  facet normal 0 0 -1
    outer loop
      vertex -2.94686 -0.562143 0
      vertex -2.94686 0.562143 0
      vertex -2.90575 0.746069 0
    endloop
  endfacet
  facet normal 0 0 -1
    outer loop
      vertex -2.97634 -0.375999 0
      vertex -2.94686 0.562143 0
      vertex -2.94686 -0.562143 0
    endloop
  endfacet
  facet normal 0 0 -1
    outer loop
      vertex -2.97634 -0.375999 0
      vertex -2.97634 0.375999 0
      vertex -2.94686 0.562143 0
    endloop
  endfacet
  facet normal 0 0 -1
    outer loop
      vertex -2.99408 -0.188371 0
      vertex -2.97634 0.375999 0
      vertex -2.97634 -0.375999 0
    endloop
  endfacet
  facet normal 0 0 -1
    outer loop
      vertex -2.99408 -0.188371 0
      vertex -2.99408 0.188371 0
      vertex -2.97634 0.375999 0
    endloop
  endfacet
  facet normal 0 -0 -1
    outer loop
      vertex -2.99408 0.188371 0
      vertex -2.99408 -0.188371 0
      vertex -3 0 0
    endloop
  endfacet
  facet normal 0 0 -1
    outer loop
      vertex 4.99605 9.87442 0
      vertex 4.99605 10.1256 0
      vertex 5 10 0
    endloop
  endfacet
  facet normal 0 0 -1
    outer loop
      vertex 4.98423 9.74933 0
      vertex 4.99605 10.1256 0
      vertex 4.99605 9.87442 0
    endloop
  endfacet
  facet normal 0 0 -1
    outer loop
      vertex 4.98423 9.74933 0
      vertex 4.98423 10.2507 0
      vertex 4.99605 10.1256 0
    endloop
  endfacet
  facet normal 0 0 -1
    outer loop
      vertex 4.96457 9.62524 0
      vertex 4.98423 10.2507 0
      vertex 4.98423 9.74933 0
    endloop
  endfacet
  facet normal 0 0 -1
    outer loop
      vertex 4.96457 9.62524 0
      vertex 4.96457 10.3748 0
      vertex 4.98423 10.2507 0
    endloop
  endfacet
  facet normal 0 0 -1
    outer loop
      vertex 4.96457 9.62524 0
      vertex 4.93717 10.4974 0
      vertex 4.96457 10.3748 0
    endloop
  endfacet
  facet normal 0 0 -1
    outer loop
      vertex 4.96457 9.62524 0
      vertex 4.90211 10.618 0
      vertex 4.93717 10.4974 0
    endloop
  endfacet
  facet normal 0 0 -1
    outer loop
      vertex 4.96457 9.62524 0
      vertex 4.85955 10.7362 0
      vertex 4.90211 10.618 0
    endloop
  endfacet
  facet normal 0 0 -1
    outer loop
      vertex 4.96457 9.62524 0
      vertex 4.80965 10.8516 0
      vertex 4.85955 10.7362 0
    endloop
  endfacet
  facet normal 0 0 -1
    outer loop
      vertex 4.96457 9.62524 0
      vertex 4.75261 10.9635 0
      vertex 4.80965 10.8516 0
    endloop
  endfacet
  facet normal 0 0 -1
    outer loop
      vertex 4.96457 9.62524 0
      vertex 4.68865 11.0717 0
      vertex 4.75261 10.9635 0
    endloop
  endfacet
  facet normal 0 0 -1
    outer loop
      vertex 4.96457 9.62524 0
      vertex 4.61803 11.1756 0
      vertex 4.68865 11.0717 0
    endloop
  endfacet
  facet normal 0 0 -1
    outer loop
      vertex 4.96457 9.62524 0
      vertex 4.54103 11.2748 0
      vertex 4.61803 11.1756 0
    endloop
  endfacet
  facet normal 0 0 -1
    outer loop
      vertex 4.96457 9.62524 0
      vertex 4.45794 11.3691 0
      vertex 4.54103 11.2748 0
    endloop
  endfacet
  facet normal 0 0 -1
    outer loop
      vertex 4.96457 9.62524 0
      vertex 4.36909 11.4579 0
      vertex 4.45794 11.3691 0
    endloop
  endfacet
  facet normal 0 0 -1
    outer loop
      vertex 4.96457 9.62524 0
      vertex 4.27485 11.541 0
      vertex 4.36909 11.4579 0
    endloop
  endfacet
  facet normal 0 0 -1
    outer loop
      vertex 4.96457 9.62524 0
      vertex 4.17557 11.618 0
      vertex 4.27485 11.541 0
    endloop
  endfacet
  facet normal 0 0 -1
    outer loop
      vertex 4.96457 9.62524 0
      vertex 4.07165 11.6887 0
      vertex 4.17557 11.618 0
    endloop
  endfacet
  facet normal 0 0 -1
    outer loop
      vertex 4.96457 9.62524 0
      vertex 3.96351 11.7526 0
      vertex 4.07165 11.6887 0
    endloop
  endfacet
  facet normal 0 0 -1
    outer loop
      vertex 4.96457 9.62524 0
      vertex 3.85156 11.8097 0
      vertex 3.96351 11.7526 0
    endloop
  endfacet
  facet normal 0 0 -1
    outer loop
      vertex 4.96457 9.62524 0
      vertex 3.73625 11.8596 0
      vertex 3.85156 11.8097 0
    endloop
  endfacet
  facet normal 0 0 -1
    outer loop
      vertex 1.14045 10.7362 0
      vertex 4.96457 9.62524 0
      vertex 3.72086 3.34577 0
    endloop
  endfacet
  facet normal 0 0 -1
    outer loop
      vertex 4.96457 9.62524 0
      vertex 3.61803 11.9021 0
      vertex 3.73625 11.8596 0
    endloop
  endfacet
  facet normal -0.99556 -0.094129 0
    outer loop
      vertex -2.97634 -0.375999 0
      vertex -2.99408 -0.188371 3
      vertex -2.99408 -0.188371 0
    endloop
  endfacet
  facet normal -0.99556 -0.094129 0
    outer loop
      vertex -2.99408 -0.188371 3
      vertex -2.97634 -0.375999 0
      vertex -2.97634 -0.375999 3
    endloop
  endfacet
  facet normal -0.917756 -0.397144 0
    outer loop
      vertex -2.71448 -1.27734 0
      vertex -2.78933 -1.10437 3
      vertex -2.78933 -1.10437 0
    endloop
  endfacet
  facet normal -0.917756 -0.397144 0
    outer loop
      vertex -2.78933 -1.10437 3
      vertex -2.71448 -1.27734 0
      vertex -2.71448 -1.27734 3
    endloop
  endfacet
  facet normal 0.156126 0.987737 -0
    outer loop
      vertex 100.375 11.9646 0
      vertex 100.251 11.9842 3
      vertex 100.375 11.9646 3
    endloop
  endfacet
  facet normal 0.156126 0.987737 0
    outer loop
      vertex 100.251 11.9842 3
      vertex 100.375 11.9646 0
      vertex 100.251 11.9842 0
    endloop
  endfacet
  facet normal 0.219132 0.975695 -0
    outer loop
      vertex 100.497 11.9372 0
      vertex 100.375 11.9646 3
      vertex 100.497 11.9372 3
    endloop
  endfacet
  facet normal 0.219132 0.975695 0
    outer loop
      vertex 100.375 11.9646 3
      vertex 100.497 11.9372 0
      vertex 100.375 11.9646 0
    endloop
  endfacet
  facet normal 0.395161 0.918612 -0
    outer loop
      vertex 100.852 11.8097 0
      vertex 100.736 11.8596 3
      vertex 100.852 11.8097 3
    endloop
  endfacet
  facet normal 0.395161 0.918612 0
    outer loop
      vertex 100.736 11.8596 3
      vertex 100.852 11.8097 0
      vertex 100.736 11.8596 0
    endloop
  endfacet
  facet normal 0.4542 0.8909 -0
    outer loop
      vertex 100.964 11.7526 0
      vertex 100.852 11.8097 3
      vertex 100.964 11.7526 3
    endloop
  endfacet
  facet normal 0.4542 0.8909 0
    outer loop
      vertex 100.852 11.8097 3
      vertex 100.964 11.7526 0
      vertex 100.852 11.8097 0
    endloop
  endfacet
  facet normal 0.974906 -0.222618 0
    outer loop
      vertex 101.937 9.50262 3
      vertex 101.965 9.62524 0
      vertex 101.965 9.62524 3
    endloop
  endfacet
  facet normal 0.974906 -0.222618 0
    outer loop
      vertex 101.965 9.62524 0
      vertex 101.937 9.50262 3
      vertex 101.937 9.50262 0
    endloop
  endfacet
  facet normal 0.99543 -0.0954925 0
    outer loop
      vertex 101.984 9.74933 3
      vertex 101.996 9.87442 0
      vertex 101.996 9.87442 3
    endloop
  endfacet
  facet normal 0.99543 -0.0954925 0
    outer loop
      vertex 101.996 9.87442 0
      vertex 101.984 9.74933 3
      vertex 101.984 9.74933 0
    endloop
  endfacet
  facet normal 0.75065 0.6607 0
    outer loop
      vertex 101.541 11.2748 3
      vertex 101.458 11.3691 0
      vertex 101.458 11.3691 3
    endloop
  endfacet
  facet normal 0.75065 0.6607 0
    outer loop
      vertex 101.458 11.3691 0
      vertex 101.541 11.2748 3
      vertex 101.541 11.2748 0
    endloop
  endfacet
  facet normal 0.974898 0.222652 0
    outer loop
      vertex 101.965 10.3748 3
      vertex 101.937 10.4974 0
      vertex 101.937 10.4974 3
    endloop
  endfacet
  facet normal 0.974898 0.222652 0
    outer loop
      vertex 101.937 10.4974 0
      vertex 101.965 10.3748 3
      vertex 101.965 10.3748 0
    endloop
  endfacet
  facet normal 0.942282 0.334821 0
    outer loop
      vertex 101.902 10.618 3
      vertex 101.86 10.7362 0
      vertex 101.86 10.7362 3
    endloop
  endfacet
  facet normal 0.942282 0.334821 0
    outer loop
      vertex 101.86 10.7362 0
      vertex 101.902 10.618 3
      vertex 101.902 10.618 0
    endloop
  endfacet
  facet normal 0.917575 0.397563 0
    outer loop
      vertex 101.86 10.7362 3
      vertex 101.81 10.8516 0
      vertex 101.81 10.8516 3
    endloop
  endfacet
  facet normal 0.917575 0.397563 0
    outer loop
      vertex 101.81 10.8516 0
      vertex 101.86 10.7362 3
      vertex 101.86 10.7362 0
    endloop
  endfacet
  facet normal 0.70651 -0.707703 0
    outer loop
      vertex 101.369 8.54206 0
      vertex 101.458 8.63091 3
      vertex 101.369 8.54206 3
    endloop
  endfacet
  facet normal 0.70651 -0.707703 0
    outer loop
      vertex 101.458 8.63091 3
      vertex 101.369 8.54206 0
      vertex 101.458 8.63091 0
    endloop
  endfacet
  facet normal 0.662288 -0.749249 0
    outer loop
      vertex 101.275 8.45897 0
      vertex 101.369 8.54206 3
      vertex 101.275 8.45897 3
    endloop
  endfacet
  facet normal 0.662288 -0.749249 0
    outer loop
      vertex 101.369 8.54206 3
      vertex 101.275 8.45897 0
      vertex 101.369 8.54206 0
    endloop
  endfacet
  facet normal 0.453821 -0.891093 0
    outer loop
      vertex 100.852 8.19035 0
      vertex 100.964 8.24739 3
      vertex 100.852 8.19035 3
    endloop
  endfacet
  facet normal 0.453821 -0.891093 0
    outer loop
      vertex 100.964 8.24739 3
      vertex 100.852 8.19035 0
      vertex 100.964 8.24739 0
    endloop
  endfacet
  facet normal 0.917462 -0.397824 0
    outer loop
      vertex 101.81 9.14844 3
      vertex 101.86 9.26375 0
      vertex 101.86 9.26375 3
    endloop
  endfacet
  facet normal 0.917462 -0.397824 0
    outer loop
      vertex 101.86 9.26375 0
      vertex 101.81 9.14844 3
      vertex 101.81 9.14844 0
    endloop
  endfacet
  facet normal 0.89114 -0.453729 0
    outer loop
      vertex 101.753 9.03649 3
      vertex 101.81 9.14844 0
      vertex 101.81 9.14844 3
    endloop
  endfacet
  facet normal 0.89114 -0.453729 0
    outer loop
      vertex 101.81 9.14844 0
      vertex 101.753 9.03649 3
      vertex 101.753 9.03649 0
    endloop
  endfacet
  facet normal 0.860705 0.509104 0
    outer loop
      vertex 101.753 10.9635 3
      vertex 101.689 11.0717 0
      vertex 101.689 11.0717 3
    endloop
  endfacet
  facet normal 0.860705 0.509104 0
    outer loop
      vertex 101.689 11.0717 0
      vertex 101.753 10.9635 3
      vertex 101.753 10.9635 0
    endloop
  endfacet
  facet normal 0.988482 0.151339 0
    outer loop
      vertex 101.984 10.2507 3
      vertex 101.965 10.3748 0
      vertex 101.965 10.3748 3
    endloop
  endfacet
  facet normal 0.988482 0.151339 0
    outer loop
      vertex 101.965 10.3748 0
      vertex 101.984 10.2507 3
      vertex 101.984 10.2507 0
    endloop
  endfacet
  facet normal 0.960374 0.278715 0
    outer loop
      vertex 101.937 10.4974 3
      vertex 101.902 10.618 0
      vertex 101.902 10.618 3
    endloop
  endfacet
  facet normal 0.960374 0.278715 0
    outer loop
      vertex 101.902 10.618 0
      vertex 101.937 10.4974 3
      vertex 101.937 10.4974 0
    endloop
  endfacet
  facet normal 0.790191 -0.61286 0
    outer loop
      vertex 101.541 8.72515 3
      vertex 101.618 8.82443 0
      vertex 101.618 8.82443 3
    endloop
  endfacet
  facet normal 0.790191 -0.61286 0
    outer loop
      vertex 101.618 8.82443 0
      vertex 101.541 8.72515 3
      vertex 101.541 8.72515 0
    endloop
  endfacet
  facet normal 0.613941 0.789352 -0
    outer loop
      vertex 101.275 11.541 0
      vertex 101.176 11.618 3
      vertex 101.275 11.541 3
    endloop
  endfacet
  facet normal 0.613941 0.789352 0
    outer loop
      vertex 101.176 11.618 3
      vertex 101.275 11.541 0
      vertex 101.176 11.618 0
    endloop
  endfacet
  facet normal 0.662333 0.74921 -0
    outer loop
      vertex 101.369 11.4579 0
      vertex 101.275 11.541 3
      vertex 101.369 11.4579 3
    endloop
  endfacet
  facet normal 0.662333 0.74921 0
    outer loop
      vertex 101.275 11.541 3
      vertex 101.369 11.4579 0
      vertex 101.275 11.541 0
    endloop
  endfacet
  facet normal -0.925901 0.377767 0
    outer loop
      vertex -2.78933 1.10437 0
      vertex 1.14045 10.7362 3
      vertex 1.14045 10.7362 0
    endloop
  endfacet
  facet normal -0.925901 0.377767 0
    outer loop
      vertex 1.14045 10.7362 3
      vertex -2.78933 1.10437 0
      vertex -2.78933 1.10437 3
    endloop
  endfacet
  facet normal 0.940867 0.338776 0
    outer loop
      vertex 4.90211 10.618 3
      vertex 4.85955 10.7362 0
      vertex 4.85955 10.7362 3
    endloop
  endfacet
  facet normal 0.940867 0.338776 0
    outer loop
      vertex 4.85955 10.7362 0
      vertex 4.90211 10.618 3
      vertex 4.90211 10.618 0
    endloop
  endfacet
  facet normal -0.0310409 0.999518 0
    outer loop
      vertex 3 12 0
      vertex 2.87442 11.9961 3
      vertex 3 12 3
    endloop
  endfacet
  facet normal -0.0310409 0.999518 0
    outer loop
      vertex 2.87442 11.9961 3
      vertex 3 12 0
      vertex 2.87442 11.9961 0
    endloop
  endfacet
  facet normal -0.706908 0.707306 0
    outer loop
      vertex 1.54206 11.3691 0
      vertex 1.63091 11.4579 3
      vertex 1.63091 11.4579 0
    endloop
  endfacet
  facet normal -0.706908 0.707306 0
    outer loop
      vertex 1.63091 11.4579 3
      vertex 1.54206 11.3691 0
      vertex 1.54206 11.3691 3
    endloop
  endfacet
  facet normal -0.860879 0.50881 0
    outer loop
      vertex 1.24739 10.9635 0
      vertex 1.31134 11.0717 3
      vertex 1.31134 11.0717 0
    endloop
  endfacet
  facet normal -0.860879 0.50881 0
    outer loop
      vertex 1.31134 11.0717 3
      vertex 1.24739 10.9635 0
      vertex 1.24739 10.9635 3
    endloop
  endfacet
  facet normal -0.890929 0.454143 0
    outer loop
      vertex 1.19035 10.8516 0
      vertex 1.24739 10.9635 3
      vertex 1.24739 10.9635 0
    endloop
  endfacet
  facet normal -0.890929 0.454143 0
    outer loop
      vertex 1.24739 10.9635 3
      vertex 1.19035 10.8516 0
      vertex 1.19035 10.8516 3
    endloop
  endfacet
  facet normal 0.980945 -0.194286 0
    outer loop
      vertex 3.72086 3.34577 3
      vertex 4.96457 9.62524 0
      vertex 4.96457 9.62524 3
    endloop
  endfacet
  facet normal 0.980945 -0.194286 0
    outer loop
      vertex 4.96457 9.62524 0
      vertex 3.72086 3.34577 3
      vertex 3.72086 3.34577 0
    endloop
  endfacet
  facet normal 0.999506 0.0314335 0
    outer loop
      vertex 5 10 3
      vertex 4.99605 10.1256 0
      vertex 4.99605 10.1256 3
    endloop
  endfacet
  facet normal 0.999506 0.0314335 0
    outer loop
      vertex 4.99605 10.1256 0
      vertex 5 10 3
      vertex 5 10 0
    endloop
  endfacet
  facet normal 0.987681 -0.156482 0
    outer loop
      vertex 4.96457 9.62524 3
      vertex 4.98423 9.74933 0
      vertex 4.98423 9.74933 3
    endloop
  endfacet
  facet normal 0.987681 -0.156482 0
    outer loop
      vertex 4.98423 9.74933 0
      vertex 4.96457 9.62524 3
      vertex 4.96457 9.62524 0
    endloop
  endfacet
  facet normal 0.508724 0.86093 -0
    outer loop
      vertex 4.07165 11.6887 0
      vertex 3.96351 11.7526 3
      vertex 4.07165 11.6887 3
    endloop
  endfacet
  facet normal 0.508724 0.86093 0
    outer loop
      vertex 3.96351 11.7526 3
      vertex 4.07165 11.6887 0
      vertex 3.96351 11.7526 0
    endloop
  endfacet
  facet normal -0.562497 0.826799 0
    outer loop
      vertex 1.92835 11.6887 0
      vertex 1.82443 11.618 3
      vertex 1.92835 11.6887 3
    endloop
  endfacet
  facet normal -0.562497 0.826799 0
    outer loop
      vertex 1.82443 11.618 3
      vertex 1.92835 11.6887 0
      vertex 1.82443 11.618 0
    endloop
  endfacet
  facet normal 0.0947039 0.995505 -0
    outer loop
      vertex 3.25067 11.9842 0
      vertex 3.12558 11.9961 3
      vertex 3.25067 11.9842 3
    endloop
  endfacet
  facet normal 0.0947039 0.995505 0
    outer loop
      vertex 3.12558 11.9961 3
      vertex 3.25067 11.9842 0
      vertex 3.12558 11.9961 0
    endloop
  endfacet
  facet normal -0.661385 0.750047 0
    outer loop
      vertex 1.72515 11.541 0
      vertex 1.63091 11.4579 3
      vertex 1.72515 11.541 3
    endloop
  endfacet
  facet normal -0.661385 0.750047 0
    outer loop
      vertex 1.63091 11.4579 3
      vertex 1.72515 11.541 0
      vertex 1.63091 11.4579 0
    endloop
  endfacet
  facet normal -0.917865 0.396893 0
    outer loop
      vertex 1.14045 10.7362 0
      vertex 1.19035 10.8516 3
      vertex 1.19035 10.8516 0
    endloop
  endfacet
  facet normal -0.917865 0.396893 0
    outer loop
      vertex 1.19035 10.8516 3
      vertex 1.14045 10.7362 0
      vertex 1.14045 10.7362 3
    endloop
  endfacet
  facet normal 0.995565 -0.0940729 0
    outer loop
      vertex 4.98423 9.74933 3
      vertex 4.99605 9.87442 0
      vertex 4.99605 9.87442 3
    endloop
  endfacet
  facet normal 0.995565 -0.0940729 0
    outer loop
      vertex 4.99605 9.87442 0
      vertex 4.98423 9.74933 3
      vertex 4.98423 9.74933 0
    endloop
  endfacet
  facet normal 0.999506 -0.0314385 0
    outer loop
      vertex 4.99605 9.87442 3
      vertex 5 10 0
      vertex 5 10 3
    endloop
  endfacet
  facet normal 0.999506 -0.0314385 0
    outer loop
      vertex 5 10 0
      vertex 4.99605 9.87442 3
      vertex 4.99605 9.87442 0
    endloop
  endfacet
  facet normal 0.995566 0.0940655 0
    outer loop
      vertex 4.99605 10.1256 3
      vertex 4.98423 10.2507 0
      vertex 4.98423 10.2507 3
    endloop
  endfacet
  facet normal 0.995566 0.0940655 0
    outer loop
      vertex 4.98423 10.2507 0
      vertex 4.99605 10.1256 3
      vertex 4.99605 10.1256 0
    endloop
  endfacet
  facet normal 0.338302 0.941038 -0
    outer loop
      vertex 3.73625 11.8596 0
      vertex 3.61803 11.9021 3
      vertex 3.73625 11.8596 3
    endloop
  endfacet
  facet normal 0.338302 0.941038 0
    outer loop
      vertex 3.61803 11.9021 3
      vertex 3.73625 11.8596 0
      vertex 3.61803 11.9021 0
    endloop
  endfacet
  facet normal 0.562497 0.826799 -0
    outer loop
      vertex 4.17557 11.618 0
      vertex 4.07165 11.6887 3
      vertex 4.17557 11.618 3
    endloop
  endfacet
  facet normal 0.562497 0.826799 0
    outer loop
      vertex 4.07165 11.6887 3
      vertex 4.17557 11.618 0
      vertex 4.07165 11.6887 0
    endloop
  endfacet
  facet normal 0.890929 0.454143 0
    outer loop
      vertex 4.80965 10.8516 3
      vertex 4.75261 10.9635 0
      vertex 4.75261 10.9635 3
    endloop
  endfacet
  facet normal 0.890929 0.454143 0
    outer loop
      vertex 4.75261 10.9635 0
      vertex 4.80965 10.8516 3
      vertex 4.80965 10.8516 0
    endloop
  endfacet
  facet normal 0.827045 0.562136 0
    outer loop
      vertex 4.68865 11.0717 3
      vertex 4.61803 11.1756 0
      vertex 4.61803 11.1756 3
    endloop
  endfacet
  facet normal 0.827045 0.562136 0
    outer loop
      vertex 4.61803 11.1756 0
      vertex 4.68865 11.0717 3
      vertex 4.68865 11.0717 0
    endloop
  endfacet
  facet normal 0.279343 0.960191 -0
    outer loop
      vertex 3.61803 11.9021 0
      vertex 3.49738 11.9372 3
      vertex 3.61803 11.9021 3
    endloop
  endfacet
  facet normal 0.279343 0.960191 0
    outer loop
      vertex 3.49738 11.9372 3
      vertex 3.61803 11.9021 0
      vertex 3.49738 11.9372 0
    endloop
  endfacet
  facet normal 0.0310409 0.999518 -0
    outer loop
      vertex 3.12558 11.9961 0
      vertex 3 12 3
      vertex 3.12558 11.9961 3
    endloop
  endfacet
  facet normal 0.0310409 0.999518 0
    outer loop
      vertex 3 12 3
      vertex 3.12558 11.9961 0
      vertex 3 12 0
    endloop
  endfacet
  facet normal 0.156016 0.987755 -0
    outer loop
      vertex 3.37476 11.9646 0
      vertex 3.25067 11.9842 3
      vertex 3.37476 11.9646 3
    endloop
  endfacet
  facet normal 0.156016 0.987755 0
    outer loop
      vertex 3.25067 11.9842 3
      vertex 3.37476 11.9646 0
      vertex 3.25067 11.9842 0
    endloop
  endfacet
  facet normal -0.0947039 0.995505 0
    outer loop
      vertex 2.87442 11.9961 0
      vertex 2.74933 11.9842 3
      vertex 2.87442 11.9961 3
    endloop
  endfacet
  facet normal -0.0947039 0.995505 0
    outer loop
      vertex 2.74933 11.9842 3
      vertex 2.87442 11.9961 0
      vertex 2.74933 11.9842 0
    endloop
  endfacet
  facet normal -0.279343 0.960191 0
    outer loop
      vertex 2.50262 11.9372 0
      vertex 2.38197 11.9021 3
      vertex 2.50262 11.9372 3
    endloop
  endfacet
  facet normal -0.279343 0.960191 0
    outer loop
      vertex 2.38197 11.9021 3
      vertex 2.50262 11.9372 0
      vertex 2.38197 11.9021 0
    endloop
  endfacet
  facet normal -0.338302 0.941038 0
    outer loop
      vertex 2.38197 11.9021 0
      vertex 2.26375 11.8596 3
      vertex 2.38197 11.9021 3
    endloop
  endfacet
  facet normal -0.338302 0.941038 0
    outer loop
      vertex 2.26375 11.8596 3
      vertex 2.38197 11.9021 0
      vertex 2.26375 11.8596 0
    endloop
  endfacet
  facet normal -0.454361 0.890818 0
    outer loop
      vertex 2.14844 11.8097 0
      vertex 2.03649 11.7526 3
      vertex 2.14844 11.8097 3
    endloop
  endfacet
  facet normal -0.454361 0.890818 0
    outer loop
      vertex 2.03649 11.7526 3
      vertex 2.14844 11.8097 0
      vertex 2.03649 11.7526 0
    endloop
  endfacet
  facet normal -0.508724 0.86093 0
    outer loop
      vertex 2.03649 11.7526 0
      vertex 1.92835 11.6887 3
      vertex 2.03649 11.7526 3
    endloop
  endfacet
  facet normal -0.508724 0.86093 0
    outer loop
      vertex 1.92835 11.6887 3
      vertex 2.03649 11.7526 0
      vertex 1.92835 11.6887 0
    endloop
  endfacet
  facet normal -0.61286 0.790191 0
    outer loop
      vertex 1.82443 11.618 0
      vertex 1.72515 11.541 3
      vertex 1.82443 11.618 3
    endloop
  endfacet
  facet normal -0.61286 0.790191 0
    outer loop
      vertex 1.72515 11.541 3
      vertex 1.82443 11.618 0
      vertex 1.72515 11.541 0
    endloop
  endfacet
  facet normal -0.827008 0.56219 0
    outer loop
      vertex 1.31134 11.0717 0
      vertex 1.38197 11.1756 3
      vertex 1.38197 11.1756 0
    endloop
  endfacet
  facet normal -0.827008 0.56219 0
    outer loop
      vertex 1.38197 11.1756 3
      vertex 1.31134 11.0717 0
      vertex 1.31134 11.0717 3
    endloop
  endfacet
  facet normal 0.706908 0.707306 0
    outer loop
      vertex 4.45794 11.3691 3
      vertex 4.36909 11.4579 0
      vertex 4.36909 11.4579 3
    endloop
  endfacet
  facet normal 0.706908 0.707306 0
    outer loop
      vertex 4.36909 11.4579 0
      vertex 4.45794 11.3691 3
      vertex 4.45794 11.3691 0
    endloop
  endfacet
  facet normal 0.61286 0.790191 -0
    outer loop
      vertex 4.27485 11.541 0
      vertex 4.17557 11.618 3
      vertex 4.27485 11.541 3
    endloop
  endfacet
  facet normal 0.61286 0.790191 0
    outer loop
      vertex 4.17557 11.618 3
      vertex 4.27485 11.541 0
      vertex 4.17557 11.618 0
    endloop
  endfacet
  facet normal 0.750295 0.661103 0
    outer loop
      vertex 4.54103 11.2748 3
      vertex 4.45794 11.3691 0
      vertex 4.45794 11.3691 3
    endloop
  endfacet
  facet normal 0.750295 0.661103 0
    outer loop
      vertex 4.45794 11.3691 0
      vertex 4.54103 11.2748 3
      vertex 4.54103 11.2748 0
    endloop
  endfacet
  facet normal 0.960246 0.279156 0
    outer loop
      vertex 4.93717 10.4974 3
      vertex 4.90211 10.618 0
      vertex 4.90211 10.618 3
    endloop
  endfacet
  facet normal 0.960246 0.279156 0
    outer loop
      vertex 4.90211 10.618 0
      vertex 4.93717 10.4974 3
      vertex 4.93717 10.4974 0
    endloop
  endfacet
  facet normal 0.975924 0.21811 0
    outer loop
      vertex 4.96457 10.3748 3
      vertex 4.93717 10.4974 0
      vertex 4.93717 10.4974 3
    endloop
  endfacet
  facet normal 0.975924 0.21811 0
    outer loop
      vertex 4.93717 10.4974 0
      vertex 4.96457 10.3748 3
      vertex 4.96457 10.3748 0
    endloop
  endfacet
  facet normal 0.917865 0.396893 0
    outer loop
      vertex 4.85955 10.7362 3
      vertex 4.80965 10.8516 0
      vertex 4.80965 10.8516 3
    endloop
  endfacet
  facet normal 0.917865 0.396893 0
    outer loop
      vertex 4.80965 10.8516 0
      vertex 4.85955 10.7362 3
      vertex 4.85955 10.7362 0
    endloop
  endfacet
  facet normal 0.860844 0.508869 0
    outer loop
      vertex 4.75261 10.9635 3
      vertex 4.68865 11.0717 0
      vertex 4.68865 11.0717 3
    endloop
  endfacet
  facet normal 0.860844 0.508869 0
    outer loop
      vertex 4.68865 11.0717 0
      vertex 4.75261 10.9635 3
      vertex 4.75261 10.9635 0
    endloop
  endfacet
  facet normal -0.789952 0.613168 0
    outer loop
      vertex 1.38197 11.1756 0
      vertex 1.45897 11.2748 3
      vertex 1.45897 11.2748 0
    endloop
  endfacet
  facet normal -0.789952 0.613168 0
    outer loop
      vertex 1.45897 11.2748 3
      vertex 1.38197 11.1756 0
      vertex 1.38197 11.1756 3
    endloop
  endfacet
  facet normal 0.218076 0.975932 -0
    outer loop
      vertex 3.49738 11.9372 0
      vertex 3.37476 11.9646 3
      vertex 3.49738 11.9372 3
    endloop
  endfacet
  facet normal 0.218076 0.975932 0
    outer loop
      vertex 3.37476 11.9646 3
      vertex 3.49738 11.9372 0
      vertex 3.37476 11.9646 0
    endloop
  endfacet
  facet normal -0.156016 0.987755 0
    outer loop
      vertex 2.74933 11.9842 0
      vertex 2.62524 11.9646 3
      vertex 2.74933 11.9842 3
    endloop
  endfacet
  facet normal -0.156016 0.987755 0
    outer loop
      vertex 2.62524 11.9646 3
      vertex 2.74933 11.9842 0
      vertex 2.62524 11.9646 0
    endloop
  endfacet
  facet normal -0.218076 0.975932 0
    outer loop
      vertex 2.62524 11.9646 0
      vertex 2.50262 11.9372 3
      vertex 2.62524 11.9646 3
    endloop
  endfacet
  facet normal -0.218076 0.975932 0
    outer loop
      vertex 2.50262 11.9372 3
      vertex 2.62524 11.9646 0
      vertex 2.50262 11.9372 0
    endloop
  endfacet
  facet normal -0.397154 0.917752 0
    outer loop
      vertex 2.26375 11.8596 0
      vertex 2.14844 11.8097 3
      vertex 2.26375 11.8596 3
    endloop
  endfacet
  facet normal -0.397154 0.917752 0
    outer loop
      vertex 2.14844 11.8097 3
      vertex 2.26375 11.8596 0
      vertex 2.14844 11.8097 0
    endloop
  endfacet
  facet normal 0.454361 0.890818 -0
    outer loop
      vertex 3.96351 11.7526 0
      vertex 3.85156 11.8097 3
      vertex 3.96351 11.7526 3
    endloop
  endfacet
  facet normal 0.454361 0.890818 0
    outer loop
      vertex 3.85156 11.8097 3
      vertex 3.96351 11.7526 0
      vertex 3.85156 11.8097 0
    endloop
  endfacet
  facet normal 0.397154 0.917752 -0
    outer loop
      vertex 3.85156 11.8097 0
      vertex 3.73625 11.8596 3
      vertex 3.85156 11.8097 3
    endloop
  endfacet
  facet normal 0.397154 0.917752 0
    outer loop
      vertex 3.73625 11.8596 3
      vertex 3.85156 11.8097 0
      vertex 3.73625 11.8596 0
    endloop
  endfacet
  facet normal 0.661385 0.750047 -0
    outer loop
      vertex 4.36909 11.4579 0
      vertex 4.27485 11.541 3
      vertex 4.36909 11.4579 3
    endloop
  endfacet
  facet normal 0.661385 0.750047 0
    outer loop
      vertex 4.27485 11.541 3
      vertex 4.36909 11.4579 0
      vertex 4.27485 11.541 0
    endloop
  endfacet
  facet normal 0.789952 0.613168 0
    outer loop
      vertex 4.61803 11.1756 3
      vertex 4.54103 11.2748 0
      vertex 4.54103 11.2748 3
    endloop
  endfacet
  facet normal 0.789952 0.613168 0
    outer loop
      vertex 4.54103 11.2748 0
      vertex 4.61803 11.1756 3
      vertex 4.61803 11.1756 0
    endloop
  endfacet
  facet normal 0.987683 0.156469 0
    outer loop
      vertex 4.98423 10.2507 3
      vertex 4.96457 10.3748 0
      vertex 4.96457 10.3748 3
    endloop
  endfacet
  facet normal 0.987683 0.156469 0
    outer loop
      vertex 4.96457 10.3748 0
      vertex 4.98423 10.2507 3
      vertex 4.98423 10.2507 0
    endloop
  endfacet
  facet normal -0.750295 0.661103 0
    outer loop
      vertex 1.45897 11.2748 0
      vertex 1.54206 11.3691 3
      vertex 1.54206 11.3691 0
    endloop
  endfacet
  facet normal -0.750295 0.661103 0
    outer loop
      vertex 1.54206 11.3691 3
      vertex 1.45897 11.2748 0
      vertex 1.45897 11.2748 3
    endloop
  endfacet
  facet normal 0.766043 -0.642789 0
    outer loop
      vertex 54.2164 -2.22548 3
      vertex 57.7019 1.92836 0
      vertex 57.7019 1.92836 3
    endloop
  endfacet
  facet normal 0.766043 -0.642789 0
    outer loop
      vertex 57.7019 1.92836 0
      vertex 54.2164 -2.22548 3
      vertex 54.2164 -2.22548 0
    endloop
  endfacet
  facet normal -0.642793 -0.76604 0
    outer loop
      vertex 57.7019 1.92836 0
      vertex 60 0 3
      vertex 57.7019 1.92836 3
    endloop
  endfacet
  facet normal -0.642793 -0.76604 -0
    outer loop
      vertex 60 0 3
      vertex 57.7019 1.92836 0
      vertex 60 0 0
    endloop
  endfacet
  facet normal -0.766043 0.64279 0
    outer loop
      vertex 58.1801 -2.16886 0
      vertex 60 0 3
      vertex 60 0 0
    endloop
  endfacet
  facet normal -0.766043 0.64279 0
    outer loop
      vertex 60 0 3
      vertex 58.1801 -2.16886 0
      vertex 58.1801 -2.16886 3
    endloop
  endfacet
endsolid OpenSCAD_Model
